<?xml version="1.0" encoding="UTF-8"?>
<svg version="1.1" xmlns="http://www.w3.org/2000/svg" width="512" height="512">
<path d="M0 0 C0.95397675 -0.0049649 1.90795349 -0.00992981 2.89083862 -0.01504517 C6.04474624 -0.02963267 9.19860325 -0.03646949 12.35253906 -0.04199219 C13.43990608 -0.04481956 14.5272731 -0.04764694 15.64759064 -0.05056 C21.42228944 -0.06555259 27.19696335 -0.07477673 32.97167969 -0.07910156 C37.70027498 -0.08345942 42.42868505 -0.09724538 47.15722656 -0.12011719 C98.80272004 -0.36493451 98.80272004 -0.36493451 118.36816406 3.16113281 C119.05599976 3.28180115 119.74383545 3.40246948 120.45251465 3.52679443 C124.13484629 4.19501542 127.74990101 5.0212887 131.36816406 5.97363281 C132.39321045 6.23297607 133.41825684 6.49231934 134.47436523 6.75952148 C164.2880308 14.46862669 192.59298783 27.33257218 216.36816406 47.16113281 C217.38265625 47.97453125 218.39714844 48.78792969 219.44238281 49.62597656 C233.6569084 61.15370397 246.72823438 74.25107614 257.36816406 89.16113281 C257.8402832 89.81597656 258.31240234 90.47082031 258.79882812 91.14550781 C280.03689034 120.89836916 300.69900547 162.49991459 297.36816406 200.16113281 C295.40969866 209.05582983 289.78695292 216.92233963 282.43066406 222.22363281 C280.91472656 223.18269531 280.91472656 223.18269531 279.36816406 224.16113281 C279.58472656 224.77859375 279.80128906 225.39605469 280.02441406 226.03222656 C283.20426241 235.70426529 283.12956398 242.69046515 279.36816406 252.16113281 C280.21378906 252.34675781 281.05941406 252.53238281 281.93066406 252.72363281 C288.7152141 255.56080828 292.62583882 260.80825184 295.64160156 267.36425781 C298.80930784 275.19837012 298.67968001 285.86534473 295.68066406 293.78613281 C291.94233978 301.54834782 286.55037341 305.7485336 279.36816406 310.16113281 C279.69300781 311.05251953 279.69300781 311.05251953 280.02441406 311.96191406 C283.70757413 322.92613592 283.32043009 332.96228308 278.26660156 343.44628906 C277.97011719 344.0121875 277.67363281 344.57808594 277.36816406 345.16113281 C278.09261719 345.57363281 278.81707031 345.98613281 279.56347656 346.41113281 C287.62900692 351.22894295 293.84984486 356.4238502 296.89550781 365.63378906 C298.61621612 374.83460126 298.8064083 385.2092815 293.36816406 393.16113281 C290.36667142 397.08353797 287.49138675 400.41231769 283.36816406 403.16113281 C282.90883079 405.25003213 282.90883079 405.25003213 282.96191406 407.67675781 C282.93278931 409.04840088 282.93278931 409.04840088 282.90307617 410.44775391 C282.89155518 411.42566895 282.88003418 412.40358398 282.86816406 413.41113281 C282.24451433 433.20523294 277.56173311 450.3744217 263.14550781 464.61035156 C247.71727287 478.78002444 230.53767574 482.47979516 210.16886902 482.42182922 C208.65142467 482.42485474 207.13398185 482.42874622 205.61654168 482.43342179 C201.47261736 482.443659 197.32877998 482.44153094 193.18484867 482.4372412 C188.70551372 482.43476616 184.22619929 482.44379778 179.74687195 482.45127869 C170.98122958 482.46400626 162.21561788 482.46582179 153.44996782 482.46347842 C146.32220015 482.46169289 139.19444175 482.46344995 132.06667519 482.46770287 C131.05087476 482.46829805 130.03507433 482.46889324 128.98849208 482.46950647 C126.92465319 482.47071826 124.8608143 482.4719324 122.79697541 482.47314885 C103.45657823 482.48401696 84.11619849 482.48186537 64.77580032 482.475764 C47.0999857 482.47059582 29.42422619 482.48184899 11.74842247 482.50086222 C-6.42033797 482.52025522 -24.58907235 482.52849403 -42.7578432 482.52473897 C-52.95049173 482.5228291 -63.14309335 482.52529354 -73.33573341 482.53945351 C-82.01316218 482.55138692 -90.69051515 482.55275024 -99.36794499 482.54066334 C-103.79096209 482.53478835 -108.2138407 482.53363687 -112.63684845 482.54566574 C-116.69397431 482.55657088 -120.75084683 482.55336665 -124.80796107 482.53940406 C-126.26749475 482.5367698 -127.72704858 482.53908323 -129.1865624 482.54713992 C-141.46452541 482.6101554 -153.72453188 481.44823027 -164.75683594 475.66113281 C-165.4193335 475.32001465 -166.08183105 474.97889648 -166.7644043 474.62744141 C-181.89249318 466.42676036 -192.51658551 452.48425608 -197.56933594 436.12597656 C-198.95603336 430.53251918 -199.68952582 425.37133773 -199.75292969 419.62207031 C-199.76807617 418.64923096 -199.78322266 417.6763916 -199.79882812 416.67407227 C-199.81223373 414.74542024 -199.78963952 412.81609462 -199.7265625 410.88842773 C-199.74712868 405.54612048 -199.74712868 405.54612048 -202.3828125 401.0534668 C-204.48699271 399.18279669 -204.48699271 399.18279669 -206.6784668 397.62011719 C-211.22999207 394.22055276 -213.14907816 389.47015959 -214.63183594 384.16113281 C-215.62440666 373.12743962 -214.69481291 364.44027904 -208.56933594 354.97363281 C-204.75083123 350.75636021 -199.47967267 348.03078048 -194.63183594 345.16113281 C-195.04755859 344.27361328 -195.04755859 344.27361328 -195.47167969 343.36816406 C-195.83390625 342.57796875 -196.19613281 341.78777344 -196.56933594 340.97363281 C-196.92898437 340.19632812 -197.28863281 339.41902344 -197.65917969 338.61816406 C-201.39885479 329.17135426 -200.0223228 319.46479023 -196.63183594 310.16113281 C-197.35628906 309.69964844 -198.08074219 309.23816406 -198.82714844 308.76269531 C-206.14378056 303.82640751 -211.32340155 298.82835016 -214.26074219 290.34472656 C-215.80180629 281.27678097 -215.94247329 270.95627887 -210.63183594 263.16113281 C-207.26095915 258.64000423 -203.85729699 254.54991501 -198.63183594 252.16113281 C-197.97183594 252.16113281 -197.31183594 252.16113281 -196.63183594 252.16113281 C-196.84839844 251.61585938 -197.06496094 251.07058594 -197.28808594 250.50878906 C-200.8372467 240.89647867 -199.99045975 233.73720905 -196.63183594 224.16113281 C-197.21191406 223.76023438 -197.79199219 223.35933594 -198.38964844 222.94628906 C-206.1379456 217.30767677 -212.78428976 209.88346595 -214.63183594 200.16113281 C-218.66033885 159.96562598 -194.92756942 114.65391993 -170.63183594 84.16113281 C-169.84808594 83.17242187 -169.06433594 82.18371094 -168.25683594 81.16503906 C-151.13818638 60.04237768 -130.83632875 43.1769645 -107.63183594 29.16113281 C-107.03790039 28.80212891 -106.44396484 28.443125 -105.83203125 28.07324219 C-90.19545039 18.80646396 -59.49514384 1.46487358 -40.63183594 6.16113281 C-38.87402344 7.56738281 -38.87402344 7.56738281 -37.63183594 9.16113281 C-37.63183594 9.82113281 -37.63183594 10.48113281 -37.63183594 11.16113281 C-36.83519531 11.01675781 -36.03855469 10.87238281 -35.21777344 10.72363281 C-34.15816406 10.53800781 -33.09855469 10.35238281 -32.00683594 10.16113281 C-30.96269531 9.97550781 -29.91855469 9.78988281 -28.84277344 9.59863281 C-25.72608729 9.17397485 -22.77252782 9.08568076 -19.63183594 9.16113281 C-19.71433594 8.39800781 -19.79683594 7.63488281 -19.88183594 6.84863281 C-19.63183594 4.16113281 -19.63183594 4.16113281 -18.00683594 2.41113281 C-12.48913371 -0.49292099 -6.08231584 0.00762789 0 0 Z " fill="#020100" transform="translate(214.6318359375,14.8388671875)"/>
<path d="M0 0 C0.94101563 0.144375 1.88203125 0.28875 2.8515625 0.4375 C3.60856445 1.91408585 3.60856445 1.91408585 4.38085938 3.42050171 C6.45132214 6.54784454 6.45132214 6.54784454 8.9347229 6.99379349 C11.71643984 7.18998929 14.446008 7.19866144 17.234375 7.14697266 C18.82101707 7.1532795 18.82101707 7.1532795 20.43971252 7.15971375 C23.95256886 7.16744722 27.46386464 7.13373386 30.9765625 7.1015625 C33.43725931 7.10265739 35.89795659 7.10697118 38.35864258 7.11434937 C44.86484903 7.12779381 51.37050601 7.10891047 57.87664795 7.07989502 C68.20257667 7.03470669 78.52818215 7.01924701 88.85418701 7.03944016 C92.4208549 7.03907461 95.98667956 7.01355157 99.55322266 6.98574829 C155.19638921 6.83246892 205.70180481 27.13563911 245.8515625 65.4375 C246.70363281 66.23671875 247.55570312 67.0359375 248.43359375 67.859375 C255.32487621 74.50105196 261.12816975 81.79666736 266.8515625 89.4375 C267.28500977 90.01016602 267.71845703 90.58283203 268.16503906 91.17285156 C286.57598366 115.61376437 306.93688517 153.54702245 305.296875 185.19921875 C304.0881312 191.27474678 301.39776152 196.66096363 296.4140625 200.4375 C291.04314931 203.95771298 285.45910836 204.73205195 279.16024399 204.69756222 C278.40161385 204.70136789 277.64298371 204.70517356 276.86136478 204.70909455 C274.31666653 204.71940944 271.77219139 204.71550437 269.22747803 204.71165466 C267.38563865 204.71610712 265.54380118 204.72142118 263.70196652 204.72752339 C258.63831052 204.74171283 253.57471587 204.7433665 248.51104283 204.74292648 C243.05077038 204.74457384 237.59052327 204.75763879 232.13026428 204.76911926 C220.19024664 204.79197404 208.25024677 204.79989028 196.31021023 204.80494571 C188.85557986 204.80820195 181.40095466 204.81472395 173.94632721 204.8219471 C153.30828899 204.84151307 132.67025558 204.85791749 112.03220749 204.86082363 C111.37221723 204.86091769 110.71222698 204.86101175 110.03223702 204.86110866 C107.35762323 204.86148714 104.68300945 204.86185114 102.00839566 204.86221164 C99.9953432 204.86248336 97.98229074 204.86276004 95.96923828 204.86303711 C95.30404851 204.86312513 94.63885873 204.86321315 93.95351169 204.86330384 C73.05408989 204.86620912 52.15476058 204.88830436 31.25537109 204.92456055 C7.77229502 204.96529792 -15.71072889 204.98896269 -39.1938436 204.98928314 C-51.62659596 204.98986802 -64.05922925 204.99837958 -76.49195099 205.02728081 C-87.07748113 205.05177483 -97.66284878 205.05909083 -108.24839959 205.04403328 C-113.64915971 205.03685656 -119.04959882 205.03775503 -124.4503231 205.06044388 C-129.39636202 205.0810235 -134.34183291 205.07844274 -139.28786561 205.05756903 C-141.07520519 205.05407224 -142.86258567 205.05899214 -144.64987162 205.07327347 C-153.95724566 205.14283912 -162.30715532 205.20403082 -170.1484375 199.4375 C-172.40234375 197.0859375 -172.40234375 197.0859375 -173.7109375 194.8125 C-174.16597656 194.05710938 -174.62101562 193.30171875 -175.08984375 192.5234375 C-179.11320639 184.59548308 -177.11289155 175.53285122 -175.1484375 167.25 C-174.92841064 166.30946777 -174.70838379 165.36893555 -174.48168945 164.39990234 C-170.57029063 148.36966627 -165.10754656 132.82148436 -157.18261719 118.32910156 C-156.1128634 116.37243197 -155.0720945 114.40186405 -154.03125 112.4296875 C-148.86485846 102.79703914 -142.83111243 94.0727889 -136.1484375 85.4375 C-135.46652344 84.53 -134.78460938 83.6225 -134.08203125 82.6875 C-113.98349927 56.88586207 -87.53851775 38.20674475 -58.1484375 24.4375 C-57.09398437 23.92832031 -56.03953125 23.41914062 -54.953125 22.89453125 C-45.87529321 18.73478769 -36.42931958 15.9507699 -26.85791016 13.15234375 C-25.21508057 12.66701172 -25.21508057 12.66701172 -23.5390625 12.171875 C-22.54938477 11.88538086 -21.55970703 11.59888672 -20.54003906 11.30371094 C-18.00497918 10.57673791 -18.00497918 10.57673791 -16.1484375 8.4375 C-15.75079487 6.44928687 -15.41068401 4.44805661 -15.1484375 2.4375 C-13.27456273 2.0978981 -11.39927053 1.76611309 -9.5234375 1.4375 C-8.47929687 1.251875 -7.43515625 1.06625 -6.359375 0.875 C-4.23920178 0.58611995 -2.11939891 0.29450705 0 0 Z " fill="#F49604" transform="translate(192.1484375,23.5625)"/>
<path d="M0 0 C0.73095391 -0.01002678 1.46190781 -0.02005356 2.21501184 -0.03038418 C4.67742561 -0.06260583 7.13985535 -0.0874567 9.60235596 -0.11209106 C11.36316726 -0.13308147 13.12397553 -0.15432779 14.88478088 -0.17581177 C30.99573852 -0.36394178 47.10772873 -0.46647502 63.21953964 -0.54795647 C75.12303273 -0.60944271 87.02462681 -0.71280405 98.92723918 -0.87065113 C107.30190635 -0.97795928 115.67605331 -1.0350457 124.05137563 -1.05608761 C129.04956079 -1.07011953 134.04526183 -1.10624862 139.04268646 -1.19732285 C143.75500692 -1.2823092 148.46366917 -1.30462754 153.17665672 -1.28096008 C154.89639205 -1.28292363 156.61627982 -1.30678389 158.33532906 -1.35539627 C167.06081616 -1.58934328 173.25808395 -1.16390766 180.0099051 4.7795819 C182.30911388 7.00952855 184.49105591 9.31622609 186.61887407 11.70965934 C188.35864505 13.62133077 190.25456312 15.29667725 192.23223877 16.95773315 C192.82520752 17.47206909 193.41817627 17.98640503 194.02911377 18.5163269 C194.67364502 19.07449097 195.31817627 19.63265503 195.98223877 20.20773315 C197.82148688 21.80511482 199.6546094 23.40957096 201.48223877 25.02023315 C202.33817627 25.76917847 203.19411377 26.51812378 204.07598877 27.2897644 C205.98223877 29.20773315 205.98223877 29.20773315 205.98223877 31.20773315 C204.57696533 32.33688354 204.57696533 32.33688354 202.62286377 33.5553894 C201.56712158 34.21571167 201.56712158 34.21571167 200.49005127 34.88937378 C199.74497314 35.34505737 198.99989502 35.80074097 198.23223877 36.27023315 C197.50262939 36.72978394 196.77302002 37.18933472 196.02130127 37.66281128 C189.40191106 41.76081558 183.83019525 43.19297444 175.98223877 42.20773315 C169.24946279 39.85073309 163.31507493 35.60876032 157.42755127 31.66085815 C152.67939211 28.83926837 148.39083323 28.94602697 142.98223877 29.20773315 C140.82518362 30.96416625 140.82518362 30.96416625 140.71661377 33.08273315 C140.72434814 34.13460815 140.72434814 34.13460815 140.73223877 35.20773315 C140.72708252 35.90898315 140.72192627 36.61023315 140.71661377 37.33273315 C140.82518362 39.45130006 140.82518362 39.45130006 142.98223877 41.20773315 C144.42545829 41.78847089 145.88719982 42.32369054 147.35723877 42.83273315 C151.69546496 44.49165082 155.23806482 46.61384737 159.04473877 49.27023315 C169.03432132 56.08650486 178.34483413 57.89503901 190.45880127 55.7741394 C197.90975005 53.59304349 204.59569106 48.98668787 211.10333252 44.86398315 C216.82183338 41.53512611 222.49112383 41.2479574 228.98223877 42.20773315 C234.73700976 44.15762558 239.61050962 47.6005308 244.66973877 50.89523315 C253.36227116 56.479821 261.63548538 57.33642432 271.77911377 55.77804565 C280.31178723 53.78051227 287.27032955 49.20750719 294.58380127 44.55148315 C300.00978972 41.51151568 305.89855274 41.61981392 311.98223877 42.20773315 C314.95476728 43.10176951 317.36815597 44.55046876 319.98223877 46.20773315 C321.59630783 47.22481777 323.21059767 48.24156748 324.82843018 49.25265503 C326.47371044 50.28803482 328.10529185 51.34508705 329.73614502 52.40304565 C338.08196185 57.04295826 347.6163029 57.56511219 356.87677002 55.59054565 C363.51675319 53.39342092 369.28912251 49.77681167 375.13458252 46.01242065 C381.53078269 41.9588617 386.38129308 41.17862649 393.98223877 42.20773315 C400.18329947 44.47260419 405.64696826 47.99042455 411.23223877 51.45773315 C420.01814458 56.78506017 429.34843243 57.51187917 439.41973877 55.5319519 C442.29534478 54.81644145 445.14251585 54.05360807 447.98223877 53.20773315 C448.90349594 68.00926503 445.75859612 79.63154433 435.98223877 91.20773315 C428.36155634 99.48821493 417.02843946 105.58106337 405.73381972 106.46073282 C404.6093551 106.46214167 403.48489048 106.46355052 402.32635117 106.46500206 C400.36666086 106.4746754 400.36666086 106.4746754 398.36738086 106.48454416 C396.92957187 106.48160229 395.49176327 106.47846688 394.05395508 106.47515869 C392.51720051 106.47889717 390.98044783 106.48349948 389.44369817 106.48888934 C385.22794145 106.50111036 381.01226415 106.50085993 376.79649377 106.49850059 C372.2469309 106.49809219 367.69739342 106.50913374 363.14784241 106.51861572 C354.23694437 106.53522185 345.32607279 106.5407251 336.41516057 106.54184048 C329.17094764 106.54279115 321.92674343 106.5469024 314.68253326 106.55324173 C294.13871007 106.5708532 273.59490777 106.58008076 253.05107698 106.57858078 C251.39012462 106.57846091 251.39012462 106.57846091 249.69561768 106.57833862 C248.58696229 106.57825686 247.47830691 106.5781751 246.3360559 106.57809086 C228.37018583 106.57727802 210.4043996 106.59641543 192.43855378 106.62461536 C173.98630059 106.65334996 155.53408828 106.66715533 137.08181214 106.6654278 C126.72430267 106.6647641 116.36688109 106.67024803 106.00939178 106.69178391 C97.19049864 106.71000328 88.37173324 106.71433681 79.55282941 106.70076506 C75.05523678 106.69423921 70.55788917 106.69410435 66.0603199 106.71147156 C61.93836515 106.72722432 57.81684926 106.72431635 53.69490507 106.70690329 C52.20838541 106.70383823 50.72183282 106.70744714 49.23535201 106.71862344 C34.56669397 106.82155628 22.88050168 103.0582217 11.75958252 93.24679565 C3.10628706 84.27671289 -2.23314094 72.89978926 -2.08026123 60.45773315 C-2.07574951 59.76035034 -2.07123779 59.06296753 -2.06658936 58.3444519 C-2.05486143 56.63217513 -2.03692776 54.91994282 -2.01776123 53.20773315 C-1.38612061 53.42429565 -0.75447998 53.64085815 -0.10369873 53.86398315 C12.757926 57.86702486 23.91251794 57.28796846 35.98223877 51.20773315 C38.94103135 49.47991694 41.80700381 47.68146393 44.64239502 45.7585144 C50.70781955 41.73852519 55.74378842 41.22770544 62.98223877 42.20773315 C70.00354178 44.77218891 76.3530556 48.89835835 82.63067627 52.91085815 C91.12942376 57.59787504 101.30508074 57.45828385 110.54473877 55.02023315 C114.68582798 53.55103484 117.50343763 51.96867281 119.98223877 48.20773315 C120.15985617 44.5318987 120.15985617 44.5318987 118.98223877 41.20773315 C116.12079233 38.85539726 116.12079233 38.85539726 112.66973877 39.45773315 C109.06183164 40.09817656 109.06183164 40.09817656 106.04473877 41.27023315 C99.19601455 43.36678139 93.28905929 42.43004145 86.98223877 39.20773315 C84.84646633 37.89172446 82.7223749 36.55665936 80.60723877 35.20773315 C70.29731869 28.70828889 61.20513447 27.05437966 48.98223877 28.20773315 C41.55981624 29.89851422 35.28139756 34.32398874 28.96270752 38.40304565 C24.47503109 41.12035432 20.93467801 42.50654011 15.66973877 42.58273315 C14.34522705 42.62527222 14.34522705 42.62527222 12.99395752 42.66867065 C5.96375463 41.59271224 -0.04353729 37.06375586 -5.83026123 33.14523315 C-6.81156006 32.49457886 -6.81156006 32.49457886 -7.81268311 31.83078003 C-13.19347446 28.21976888 -16.40718696 25.77392055 -18.01776123 19.20773315 C-18.61013231 14.77821209 -18.41808122 11.9787198 -16.33026123 7.95773315 C-11.21832757 1.87867691 -7.80184823 0.09472652 0 0 Z " fill="#F49604" transform="translate(33.01776123046875,374.7922668457031)"/>
<path d="M0 0 C2.91889148 -0.16216064 5.82879225 -0.28091202 8.75 -0.375 C9.575 -0.42527344 10.4 -0.47554688 11.25 -0.52734375 C12.44882812 -0.55634766 12.44882812 -0.55634766 13.671875 -0.5859375 C14.77160645 -0.63306885 14.77160645 -0.63306885 15.89355469 -0.68115234 C18 0 18 0 19.54321289 2.99822998 C21.58990675 6.07805289 21.58990675 6.07805289 23.9195137 6.55534172 C26.43489399 6.75207129 28.89229614 6.7614141 31.41503906 6.70947266 C32.84504494 6.7157795 32.84504494 6.7157795 34.30393982 6.72221375 C37.45847671 6.72992942 40.61126604 6.69630857 43.765625 6.6640625 C45.96035136 6.66515629 48.15507827 6.66946388 50.34979248 6.67684937 C56.13375538 6.69027481 61.91709849 6.67140369 67.70098877 6.64239502 C76.94431645 6.59709004 86.18730514 6.58145224 95.43071747 6.60194016 C98.65485308 6.60156807 101.87810993 6.57582206 105.10211182 6.54824829 C107.0905354 6.54756304 109.07895964 6.5478672 111.06738281 6.54931641 C112.4033979 6.52763145 112.4033979 6.52763145 113.7664032 6.50550842 C119.64736119 6.54228539 124.08900758 7.67554964 129 11 C133.40250289 15.62827227 134.38619121 19.51126198 134.265625 25.73046875 C133.63757692 31.09658547 130.07558722 34.10859269 126.125 37.375 C124.43717401 38.61181675 122.72615443 39.81726456 121 41 C119.93007813 41.73347656 118.86015625 42.46695313 117.7578125 43.22265625 C110.07160233 48.20253077 103.29811804 50.81163332 94 49 C90.37180871 47.7377908 87.25063438 46.03297004 84 44 C72.80726115 37.06951155 63.89741258 33.15888463 50.43359375 35.43359375 C42.51146539 37.48088535 35.73050636 41.9976122 28.8828125 46.34375 C23.16190189 49.66710056 17.49202881 49.96582576 11 49 C5.61674914 47.15319131 1.13074501 44.11895447 -3.5 40.875 C-12.36848504 34.848779 -21.97345837 33.81324583 -32.45703125 35.36328125 C-39.55266673 37.09306303 -45.47672709 41.08512726 -51.58203125 44.94140625 C-58.47597196 49.09352825 -64.01283373 49.82589808 -72 49 C-75.98194925 47.80398287 -79.16595043 45.54773405 -82.6171875 43.28125 C-93.16958199 36.38273172 -101.18951212 33.74914428 -114 35 C-121.88872673 36.69730386 -128.450537 40.87944667 -135.15234375 45.1953125 C-141.80691507 49.41261284 -147.09838933 50.02792446 -155 49 C-158.99410912 47.45305877 -162.44201777 45.36826447 -166 43 C-176.20621944 36.30739709 -184.5576383 33.78645127 -197 35 C-204.78000717 36.65377158 -210.86487979 40.61777128 -217.2734375 45.1953125 C-223.89960633 49.58111479 -230.20390838 49.90846252 -238 49 C-241.35856358 47.76290352 -244.0663998 46.02403421 -247 44 C-247.99700928 43.55974487 -247.99700928 43.55974487 -249.01416016 43.1105957 C-251.41228869 41.94292473 -253.1322741 40.91422306 -255 39 C-256.10457056 35.16160779 -255.93887191 31.52632486 -255.75 27.5625 C-255.74742187 26.53833984 -255.74484375 25.51417969 -255.7421875 24.45898438 C-255.60477016 18.56149016 -255.15022994 14.51516395 -251 10 C-246.35665463 6.27780089 -241.95910882 6.57889645 -236.27635193 6.62145996 C-234.79797296 6.61466477 -234.79797296 6.61466477 -233.28972775 6.6077323 C-229.98395216 6.59609578 -226.67858021 6.6057605 -223.37280273 6.61523438 C-221.00419859 6.61112992 -218.63559647 6.6056698 -216.26699829 6.59895325 C-210.49976571 6.58568975 -204.73264185 6.58583094 -198.96539932 6.59115088 C-192.24991823 6.59628375 -185.53452126 6.58199577 -178.81906284 6.56580251 C-166.83812106 6.53715876 -154.85719308 6.51964098 -142.8762207 6.51123047 C-142.15935929 6.51072329 -141.44249788 6.51021611 -140.7039134 6.50969356 C-134.88680206 6.50566126 -129.06969043 6.50216721 -123.25257874 6.49869633 C-118.16618837 6.49563879 -113.07979821 6.49236663 -107.9934082 6.48876953 C-107.2771175 6.48826692 -106.56082679 6.4877643 -105.82283031 6.48724645 C-93.88517523 6.47850661 -81.94756765 6.45808008 -70.0099445 6.42928743 C-63.3073722 6.41363963 -56.604902 6.40451067 -49.90231133 6.41069031 C-43.60271652 6.41632166 -37.30328234 6.40872423 -31.0037117 6.39084435 C-28.68814592 6.3868295 -26.3725647 6.38798733 -24.05700493 6.39461708 C-20.90335604 6.40295496 -17.75027855 6.39305823 -14.59666443 6.37854004 C-13.67400785 6.38543397 -12.75135128 6.39232791 -11.80073541 6.39943075 C-6.94017586 6.36716692 -6.94017586 6.36716692 -2.46270847 4.66384125 C-0.76877639 2.95444708 -0.76877639 2.95444708 0 0 Z " fill="#7FD060" transform="translate(363,272)"/>
<path d="M0 0 C1.10335797 -0.00525911 1.10335797 -0.00525911 2.22900599 -0.01062447 C4.70727561 -0.01996877 7.1853118 -0.0150074 9.66359138 -0.01015663 C11.45293276 -0.01389136 13.24227251 -0.01849217 15.03160965 -0.02388728 C19.95929022 -0.03615451 24.88690309 -0.03585244 29.81459546 -0.03349853 C35.12485702 -0.0330913 40.43509659 -0.04412045 45.74534798 -0.05361366 C56.15292965 -0.0702448 66.56048868 -0.07572415 76.96808253 -0.07683842 C85.42522448 -0.07778785 93.88235894 -0.08189287 102.33949852 -0.08823967 C126.30196308 -0.10585748 150.2644097 -0.11507764 174.22688077 -0.11357872 C175.5193989 -0.11349881 176.81191703 -0.1134189 178.14360237 -0.11333656 C179.43769331 -0.1132548 180.73178426 -0.11317304 182.06509008 -0.1130888 C203.04469157 -0.11227564 224.02422131 -0.13141942 245.00380205 -0.1596133 C266.53069901 -0.18831511 288.05756095 -0.2021551 309.58447754 -0.20042574 C321.6761758 -0.19976093 333.76779884 -0.20529326 345.8594799 -0.22678185 C356.15347457 -0.24495806 366.4473599 -0.2493703 376.74136363 -0.235763 C381.99575267 -0.22921547 387.24993177 -0.22918039 392.50430107 -0.2464695 C397.31198324 -0.26212645 402.1192877 -0.25941246 406.92696024 -0.24190123 C408.66852572 -0.23881501 410.41011887 -0.24252433 412.15165173 -0.25362138 C414.51542048 -0.26768876 416.87785446 -0.25719983 419.24157715 -0.24050903 C420.55551952 -0.24094377 421.8694619 -0.24137851 423.22322071 -0.24182642 C427.37499292 0.34627734 429.51276981 1.63165435 432.74662971 4.25726891 C435.22294192 7.97173721 435.28468198 10.95285077 434.74662971 15.25726891 C433.46561941 18.35866227 432.62512939 19.78615514 429.66400337 21.37412071 C425.84587351 22.52994608 422.20623199 22.53327988 418.2561512 22.51264 C417.4132856 22.51626045 416.57042 22.51988091 415.70201302 22.52361107 C413.87741806 22.53048889 412.05280261 22.53301354 410.22819519 22.53166389 C407.34073047 22.53069737 404.45363665 22.54365446 401.56622505 22.56064415 C393.35889201 22.60688834 385.15159837 22.63153607 376.94413948 22.63812828 C371.9196793 22.64313673 366.89560893 22.66734804 361.87128067 22.70345497 C359.95713387 22.71326419 358.04293353 22.71557881 356.12876892 22.71028328 C353.45465808 22.70322984 350.78171418 22.72045722 348.1077137 22.74310875 C347.31643578 22.73493629 346.52515785 22.72676384 345.70990181 22.71834373 C342.18295073 22.77157605 340.14752097 22.95666822 337.28656197 25.10190392 C335.57985192 27.26727042 335.57985192 27.26727042 334.74662971 30.25726891 C328.80662971 30.25726891 322.86662971 30.25726891 316.74662971 30.25726891 C316.08662971 28.60726891 315.42662971 26.95726891 314.74662971 25.25726891 C311.67650238 23.21051735 311.0654981 23.00665382 307.60760498 23 C306.760717 22.99355111 305.91382902 22.98710222 305.04127777 22.9804579 C303.64534352 22.98510371 303.64534352 22.98510371 302.22120857 22.98984337 C300.73843396 22.9830467 300.73843396 22.9830467 299.22570431 22.97611272 C295.89783438 22.96340536 292.57012677 22.9650932 289.24223518 22.96674156 C286.86233496 22.96076012 284.48243668 22.95395547 282.10254097 22.94638634 C276.29862129 22.93051804 270.49475125 22.92427603 264.69081096 22.92316158 C259.97127377 22.92221145 255.25174998 22.91810286 250.53221703 22.91176033 C237.14850623 22.8941406 223.76482753 22.88492213 210.38110505 22.88642128 C209.65932585 22.88650119 208.93754664 22.8865811 208.19389534 22.88666344 C207.47123325 22.8867452 206.74857116 22.88682696 206.00401022 22.8869112 C194.30257947 22.88772341 182.60127767 22.8686042 170.89988421 22.8403867 C158.88205471 22.81163526 146.86428802 22.79784778 134.84642327 22.79957426 C128.10059807 22.80023758 121.35490788 22.79477141 114.60911369 22.77321815 C108.26107401 22.75384805 101.91331923 22.75370327 95.56526947 22.76825142 C93.2372852 22.77034236 90.90928316 22.7656217 88.58132935 22.7535305 C85.39853635 22.73807253 82.21672489 22.74739081 79.03395271 22.76279259 C78.11671421 22.75250546 77.19947571 22.74221833 76.2544421 22.73161948 C67.64875693 22.82338575 60.62520072 25.72979581 54.25053596 31.54242516 C50.01879092 36.36771366 47.63197688 42.46983214 47.60478401 48.84882164 C47.59774956 49.77665962 47.5907151 50.7044976 47.58346748 51.66045189 C47.57930321 52.66048744 47.57513893 53.66052299 47.57084846 54.69086266 C47.54765651 56.80480497 47.52353943 58.91873731 47.49858284 61.03265953 C47.46341779 64.3684215 47.4340934 67.70381452 47.42070198 71.03973961 C47.40525496 74.25723471 47.36507276 77.47365144 47.32084846 80.69086266 C47.32275688 81.68887398 47.3246653 82.6868853 47.32663155 83.71513939 C47.20473335 90.59686022 47.20473335 90.59686022 44.92558479 93.88251305 C41.65287637 95.94734455 39.53230509 95.85500712 35.74662971 95.25726891 C32.84342457 93.22349675 31.01940065 91.62924812 30.30912971 88.0567379 C30.15365593 85.30569725 30.15971415 82.59418819 30.21537971 79.83930016 C30.21211678 78.82687752 30.20885384 77.81445488 30.20549202 76.77135277 C30.19236452 72.45300793 30.23686738 68.13570334 30.27641487 63.81757164 C30.29702762 60.65782971 30.28801545 57.49907006 30.27787971 54.33930016 C30.29749763 53.37853065 30.31711555 52.41776115 30.33732796 51.42787743 C30.30739771 43.53605311 28.16105567 37.0347337 22.80363655 31.107687 C15.25111653 23.88477296 7.822314 22.87773357 -2.17500114 22.72260094 C-6.70862619 22.59816663 -9.62473491 22.02685234 -13.25337029 19.25726891 C-15.59469906 16.24698905 -15.67157064 12.976811 -15.57368279 9.22211266 C-15.05724612 6.05421457 -13.54090626 4.41771955 -11.25337029 2.25726891 C-7.60530161 -0.15720693 -4.30078857 0.00461258 0 0 Z " fill="#E9433E" transform="translate(46.25337028503418,241.74273109436035)"/>
<path d="M0 0 C0.73095391 -0.01002678 1.46190781 -0.02005356 2.21501184 -0.03038418 C4.67742561 -0.06260583 7.13985535 -0.0874567 9.60235596 -0.11209106 C11.36316726 -0.13308147 13.12397553 -0.15432779 14.88478088 -0.17581177 C30.99573852 -0.36394178 47.10772873 -0.46647502 63.21953964 -0.54795647 C75.12303273 -0.60944271 87.02462681 -0.71280405 98.92723918 -0.87065113 C107.30190635 -0.97795928 115.67605331 -1.0350457 124.05137563 -1.05608761 C129.04956079 -1.07011953 134.04526183 -1.10624862 139.04268646 -1.19732285 C143.75500692 -1.2823092 148.46366917 -1.30462754 153.17665672 -1.28096008 C154.89639205 -1.28292363 156.61627982 -1.30678389 158.33532906 -1.35539627 C167.06081616 -1.58934328 173.25808395 -1.16390766 180.0099051 4.7795819 C182.30911388 7.00952855 184.49105591 9.31622609 186.61887407 11.70965934 C188.35864505 13.62133077 190.25456312 15.29667725 192.23223877 16.95773315 C192.82520752 17.47206909 193.41817627 17.98640503 194.02911377 18.5163269 C194.67364502 19.07449097 195.31817627 19.63265503 195.98223877 20.20773315 C197.82148688 21.80511482 199.6546094 23.40957096 201.48223877 25.02023315 C202.33817627 25.76917847 203.19411377 26.51812378 204.07598877 27.2897644 C205.98223877 29.20773315 205.98223877 29.20773315 205.98223877 31.20773315 C204.57696533 32.33688354 204.57696533 32.33688354 202.62286377 33.5553894 C201.56712158 34.21571167 201.56712158 34.21571167 200.49005127 34.88937378 C199.74497314 35.34505737 198.99989502 35.80074097 198.23223877 36.27023315 C197.50262939 36.72978394 196.77302002 37.18933472 196.02130127 37.66281128 C189.40191106 41.76081558 183.83019525 43.19297444 175.98223877 42.20773315 C169.24946279 39.85073309 163.31507493 35.60876032 157.42755127 31.66085815 C153.12310165 29.10294241 147.9271072 28.0777737 142.98223877 29.20773315 C142.38411377 30.15648315 141.78598877 31.10523315 141.16973877 32.08273315 C138.98223877 35.20773315 138.98223877 35.20773315 136.54473877 35.91085815 C134.6114608 36.19454568 132.67499754 36.45724138 130.73614502 36.69992065 C127.98301267 37.20759045 126.41345586 37.92701324 124.10723877 39.45773315 C123.07598877 40.03523315 122.04473877 40.61273315 120.98223877 41.20773315 C118.48223877 40.39523315 118.48223877 40.39523315 115.98223877 39.20773315 C112.40891549 39.46761121 109.41314513 40.05187341 106.04473877 41.27023315 C99.19601455 43.36678139 93.28905929 42.43004145 86.98223877 39.20773315 C84.84646633 37.89172446 82.7223749 36.55665936 80.60723877 35.20773315 C70.29731869 28.70828889 61.20513447 27.05437966 48.98223877 28.20773315 C41.55981624 29.89851422 35.28139756 34.32398874 28.96270752 38.40304565 C24.47503109 41.12035432 20.93467801 42.50654011 15.66973877 42.58273315 C14.34522705 42.62527222 14.34522705 42.62527222 12.99395752 42.66867065 C5.96375463 41.59271224 -0.04353729 37.06375586 -5.83026123 33.14523315 C-6.81156006 32.49457886 -6.81156006 32.49457886 -7.81268311 31.83078003 C-13.19347446 28.21976888 -16.40718696 25.77392055 -18.01776123 19.20773315 C-18.61013231 14.77821209 -18.41808122 11.9787198 -16.33026123 7.95773315 C-11.21832757 1.87867691 -7.80184823 0.09472652 0 0 Z " fill="#7FD060" transform="translate(33.01776123046875,374.7922668457031)"/>
<path d="M0 0 C1.76482878 -0.00293949 3.52965472 -0.00891969 5.29446411 -0.0177002 C10.07154159 -0.03248643 14.84745622 -0.00375577 19.62437296 0.03373289 C24.62902696 0.06641477 29.63365616 0.0616409 34.63839722 0.06167603 C43.03972935 0.0672354 51.44061688 0.09951912 59.84179688 0.14941406 C69.55082458 0.20690703 79.25942854 0.22972841 88.9686166 0.23229825 C99.31402182 0.23522368 109.65927139 0.26103944 120.00461721 0.29486513 C122.98256355 0.30321894 125.96049429 0.30756928 128.93844986 0.31113815 C133.61878553 0.31805057 138.29880364 0.3404941 142.97901535 0.37490845 C144.69546461 0.38525654 146.41195278 0.39057171 148.12843323 0.39046097 C150.47341261 0.39122997 152.81754295 0.41046805 155.16238403 0.43441772 C156.47384462 0.44074408 157.78530521 0.44707043 159.13650703 0.45358849 C163.60213671 0.94571843 167.00431628 2.29338166 170.30810547 5.37744141 C174.68273456 11.09811022 175.40407338 14.69149477 174.66357422 21.84228516 C170.51550949 31.45825338 157.45127228 37.10736109 148.66357422 41.84228516 C141.80543293 44.12833225 136.11454949 43.40531551 129.66357422 40.21728516 C125.82550219 38.14078977 122.116848 35.89831147 118.41357422 33.59228516 C109.65820961 28.308637 100.74911781 27.85026448 90.66357422 28.84228516 C83.07987628 30.88404999 76.65433694 34.86394573 70.23388672 39.29150391 C64.66744677 42.64997908 59.05728134 43.84420695 52.66357422 42.84228516 C47.27551037 40.84002219 42.5154035 37.75442399 37.66357422 34.71728516 C27.63450423 28.68429422 16.4141752 26.78907152 4.86669922 29.49853516 C-0.8181207 31.59865971 -5.69489964 34.92135653 -10.74267578 38.22509766 C-16.8929242 42.0597405 -23.05464387 44.12445938 -30.33642578 42.84228516 C-37.24650535 40.29187724 -43.34278031 36.05520987 -49.33642578 31.84228516 C-48.03626062 28.94596642 -46.70132155 26.9903421 -44.35986328 24.85400391 C-43.77543457 24.31598145 -43.19100586 23.77795898 -42.58886719 23.22363281 C-41.96931152 22.66466309 -41.34975586 22.10569336 -40.71142578 21.52978516 C-40.07769043 20.95019043 -39.44395508 20.3705957 -38.79101562 19.7734375 C-30.88041624 12.55934341 -30.88041624 12.55934341 -27.22329521 9.52527428 C-25.31336628 7.9068624 -25.31336628 7.9068624 -23.84190559 6.03547096 C-17.34353912 -1.20137957 -8.95909334 -0.11491546 0 0 Z " fill="#7ED060" transform="translate(322.33642578125,374.15771484375)"/>
<path d="M0 0 C0.19464844 0.9178125 0.38929688 1.835625 0.58984375 2.78125 C2.45985682 7.04964547 4.35081345 7.64631272 8.5625 9.5 C9.84084916 10.08351269 11.11690393 10.67207781 12.390625 11.265625 C13.01130859 11.55373047 13.63199219 11.84183594 14.27148438 12.13867188 C16.60838031 13.303159 18.69239799 14.73134537 20.8125 16.25 C29.86993272 22.45417552 39.68406018 23.4559453 50.4765625 21.56640625 C57.92751128 19.38531033 64.61345229 14.77895472 71.12109375 10.65625 C76.83959461 7.32739295 82.50888506 7.04022425 89 8 C94.754771 9.94989242 99.62827085 13.39279764 104.6875 16.6875 C113.38003239 22.27208785 121.65324661 23.12869116 131.796875 21.5703125 C140.32954846 19.57277912 147.28809078 14.99977404 154.6015625 10.34375 C160.02755096 7.30378253 165.91631397 7.41208076 172 8 C174.97252851 8.89403635 177.3859172 10.3427356 180 12 C181.61406906 13.01708461 183.2283589 14.03383432 184.84619141 15.04492188 C186.49147167 16.08030166 188.12305308 17.1373539 189.75390625 18.1953125 C198.09972308 22.83522511 207.63406413 23.35737904 216.89453125 21.3828125 C223.53451442 19.18568776 229.30688374 15.56907852 235.15234375 11.8046875 C241.54854392 7.75112854 246.39905431 6.97089334 254 8 C260.2010607 10.26487104 265.66472949 13.7826914 271.25 17.25 C280.03590581 22.57732701 289.36619367 23.30414602 299.4375 21.32421875 C302.30743893 20.61011838 305.15634453 19.81247299 308 19 C308 23.95 308 28.9 308 34 C307.67 33.01 307.34 32.02 307 31 C306.113125 31.474375 305.22625 31.94875 304.3125 32.4375 C296.61154523 36.07002583 286.78390965 36.65376781 278.734375 33.87109375 C273.95719542 31.52537608 269.57111343 28.75632948 265.1875 25.75 C258.262914 21.01799311 251.24062116 20.10850423 243 21 C235.60166374 22.84666213 229.31585426 27.10547776 222.98046875 31.1953125 C215.43423788 35.76458991 207.61545575 36.07198939 199 35 C195.25060101 33.86197104 192.25409924 32.15865989 189 30 C179.29129261 23.69880551 171.87810602 19.70211566 160 21 C153.18049938 22.7493957 147.50761756 26.38555344 141.73828125 30.31640625 C133.33749265 35.48151308 125.57795232 35.99770337 116 35 C112.25319513 33.85457732 109.25548443 32.15602099 106 30 C105.06285156 29.39929688 104.12570312 28.79859375 103.16015625 28.1796875 C101.30693846 26.99064306 99.46551748 25.78285686 97.640625 24.55078125 C90.67704146 20.46122109 83.62836281 20.08836377 75.78125 21.359375 C69.90238429 22.98264389 65.02435486 26.35565492 60.04760742 29.77514648 C51.75841543 35.41019276 42.80995474 36.45860153 33 35 C28.91965424 33.52640066 25.56998372 31.43884514 22 29 C12.11493744 22.87039789 4.14771407 18.93523025 -7.734375 21.6171875 C-14.3459184 23.77644878 -19.60718853 27.30679978 -25.3046875 31.2265625 C-32.40775661 35.90017609 -40.73724321 36.01394432 -49 35 C-53.32299942 33.4804002 -57.09963524 31.38775793 -61 29 C-62.36511719 28.17628906 -62.36511719 28.17628906 -63.7578125 27.3359375 C-64.62148437 26.81257813 -65.48515625 26.28921875 -66.375 25.75 C-74.24367004 20.98639944 -81.11279221 19.99359464 -90.21875 21.32421875 C-95.52810101 22.72089504 -99.89367365 25.68283211 -104.375 28.75 C-104.98255127 29.15589355 -105.59010254 29.56178711 -106.21606445 29.97998047 C-110.59984349 33.13149253 -112.36708955 35.837896 -114 41 C-114.88932562 48.28516053 -111.29394894 53.47023161 -107 59 C-106.21625 60.051875 -105.4325 61.10375 -104.625 62.1875 C-101.83371052 65.17816731 -98.90806236 67.45291726 -95.57421875 69.80078125 C-95.05472656 70.19652344 -94.53523438 70.59226562 -94 71 C-94 71.33 -94 71.66 -94 72 C-106.31875487 72.9619852 -116.30418037 68.4083736 -126 61 C-133.30389747 54.55613967 -140.51520475 43.81820859 -142 34 C-142.06898242 31.40626086 -142.09434752 28.84189803 -142.0625 26.25 C-142.05798828 25.55261719 -142.05347656 24.85523438 -142.04882812 24.13671875 C-142.0371002 22.42444197 -142.01916653 20.71220967 -142 19 C-141.36835938 19.2165625 -140.73671875 19.433125 -140.0859375 19.65625 C-127.22431277 23.6592917 -116.06972083 23.08023531 -104 17 C-101.04120742 15.27218378 -98.17523496 13.47373078 -95.33984375 11.55078125 C-89.27441922 7.53079204 -84.23845034 7.01997228 -77 8 C-69.97869699 10.56445576 -63.62918317 14.69062519 -57.3515625 18.703125 C-48.85281501 23.39014189 -38.67715803 23.25055069 -29.4375 20.8125 C-25.28967327 19.34333567 -22.53574963 17.71909946 -20 14 C-20.061875 12.845 -20.12375 11.69 -20.1875 10.5 C-20 7 -20 7 -18.625 5.51171875 C-13.22420881 1.82045219 -6.56192952 0 0 0 Z " fill="#EC7D02" transform="translate(173,409)"/>
<path d="M0 0 C8.72817098 -0.75897139 15.45116728 2.87268138 22.625 7.5625 C32.94302885 14.24984554 42.83156171 15.88343887 55.0234375 13.37890625 C61.58931402 11.21274464 67.29552356 7.55451169 73.0546875 3.8046875 C79.01546757 0.15232623 84.06932581 -1.09888297 91 0 C98.00794113 2.67760597 104.41420361 6.71756979 110.74609375 10.703125 C119.25307035 15.59795382 130.01695426 15.4667672 139.42578125 13.16015625 C146.00544406 10.57186505 151.7473216 6.7389441 157.50390625 2.671875 C161.0060709 0.32613717 163.5707268 -0.12216338 167.6875 -0.0625 C168.89986328 -0.04896484 168.89986328 -0.04896484 170.13671875 -0.03515625 C171.05904297 -0.01775391 171.05904297 -0.01775391 172 0 C170.90303373 3.2908988 170.15198144 3.96796717 167.5625 6.125 C164.37328247 8.83100275 161.22841403 11.57065115 158.125 14.375 C156.86042969 15.51582031 156.86042969 15.51582031 155.5703125 16.6796875 C154.72210938 17.44539063 153.87390625 18.21109375 153 19 C151.33359149 20.50028679 149.66692647 22.00028872 148 23.5 C147.175 24.2425 146.35 24.985 145.5 25.75 C138 32.5 138 32.5 135.5078125 34.7421875 C133.81407106 36.26708244 132.12138831 37.79315402 130.4296875 39.3203125 C126.68435744 42.69912708 122.93481793 46.06895965 119.125 49.375 C115.69667685 52.35916792 112.34383371 55.42192892 109 58.5 C104.39390753 62.739096 99.73266006 66.90292446 95 71 C93.49935908 72.31176715 91.99935031 73.62425786 90.5 74.9375 C89.33333333 75.95833333 88.16666667 76.97916667 87 78 C82.85310018 76.33922701 79.93283833 73.34019055 76.75 70.3125 C75.58274649 69.21798673 74.41478071 68.12423255 73.24609375 67.03125 C72.68519043 66.5053125 72.12428711 65.979375 71.54638672 65.4375 C69.06549177 63.1312939 66.50961693 60.91608342 63.94921875 58.69921875 C59.04651697 54.4253204 54.24887834 50.03080529 49.421875 45.671875 C45.67872391 42.29614978 41.93203528 38.92862565 38.125 35.625 C34.158251 32.17216181 30.29317331 28.61122619 26.42456055 25.04956055 C23.02076307 21.92103464 19.57345205 18.85349211 16.078125 15.828125 C12.47220304 12.65599816 8.95044054 9.39018007 5.41796875 6.13671875 C2.9971754 3.9003945 2.9971754 3.9003945 0 2 C0 1.34 0 0.68 0 0 Z " fill="#FCDF75" transform="translate(170,321)"/>
<path d="M0 0 C2.91889148 -0.16216064 5.82879225 -0.28091202 8.75 -0.375 C9.575 -0.42527344 10.4 -0.47554688 11.25 -0.52734375 C12.44882812 -0.55634766 12.44882812 -0.55634766 13.671875 -0.5859375 C14.77160645 -0.63306885 14.77160645 -0.63306885 15.89355469 -0.68115234 C18 0 18 0 19.54321289 2.99822998 C21.58990675 6.07805289 21.58990675 6.07805289 23.9195137 6.55534172 C26.43489399 6.75207129 28.89229614 6.7614141 31.41503906 6.70947266 C32.84504494 6.7157795 32.84504494 6.7157795 34.30393982 6.72221375 C37.45847671 6.72992942 40.61126604 6.69630857 43.765625 6.6640625 C45.96035136 6.66515629 48.15507827 6.66946388 50.34979248 6.67684937 C56.13375538 6.69027481 61.91709849 6.67140369 67.70098877 6.64239502 C76.94431645 6.59709004 86.18730514 6.58145224 95.43071747 6.60194016 C98.65485308 6.60156807 101.87810993 6.57582206 105.10211182 6.54824829 C107.0905354 6.54756304 109.07895964 6.5478672 111.06738281 6.54931641 C112.4033979 6.52763145 112.4033979 6.52763145 113.7664032 6.50550842 C119.64736119 6.54228539 124.08900758 7.67554964 129 11 C132.86146019 15.05948379 134.14290962 18.13923643 134.0625 23.6875 C134.05347656 24.49574219 134.04445313 25.30398438 134.03515625 26.13671875 C134.01775391 27.05904297 134.01775391 27.05904297 134 28 C133.67 28 133.34 28 133 28 C133 25.36 133 22.72 133 20 C5.29 20 -122.42 20 -254 20 C-254 26.27 -254 32.54 -254 39 C-254.33 39 -254.66 39 -255 39 C-255.11674705 35.29193404 -255.18743274 31.5843446 -255.25 27.875 C-255.28351563 26.82828125 -255.31703125 25.7815625 -255.3515625 24.703125 C-255.42816597 18.65145087 -255.34981058 14.63092078 -251 10 C-246.35226028 6.2806395 -241.96181712 6.57887616 -236.27635193 6.62145996 C-234.79797296 6.61466477 -234.79797296 6.61466477 -233.28972775 6.6077323 C-229.98395216 6.59609578 -226.67858021 6.6057605 -223.37280273 6.61523438 C-221.00419859 6.61112992 -218.63559647 6.6056698 -216.26699829 6.59895325 C-210.49976571 6.58568975 -204.73264185 6.58583094 -198.96539932 6.59115088 C-192.24991823 6.59628375 -185.53452126 6.58199577 -178.81906284 6.56580251 C-166.83812106 6.53715876 -154.85719308 6.51964098 -142.8762207 6.51123047 C-142.15935929 6.51072329 -141.44249788 6.51021611 -140.7039134 6.50969356 C-134.88680206 6.50566126 -129.06969043 6.50216721 -123.25257874 6.49869633 C-118.16618837 6.49563879 -113.07979821 6.49236663 -107.9934082 6.48876953 C-107.2771175 6.48826692 -106.56082679 6.4877643 -105.82283031 6.48724645 C-93.88517523 6.47850661 -81.94756765 6.45808008 -70.0099445 6.42928743 C-63.3073722 6.41363963 -56.604902 6.40451067 -49.90231133 6.41069031 C-43.60271652 6.41632166 -37.30328234 6.40872423 -31.0037117 6.39084435 C-28.68814592 6.3868295 -26.3725647 6.38798733 -24.05700493 6.39461708 C-20.90335604 6.40295496 -17.75027855 6.39305823 -14.59666443 6.37854004 C-13.67400785 6.38543397 -12.75135128 6.39232791 -11.80073541 6.39943075 C-6.94017586 6.36716692 -6.94017586 6.36716692 -2.46270847 4.66384125 C-0.76877639 2.95444708 -0.76877639 2.95444708 0 0 Z " fill="#68C944" transform="translate(363,272)"/>
<path d="M0 0 C0 0.66 0 1.32 0 2 C-0.88558594 2.40089844 -1.77117187 2.80179688 -2.68359375 3.21484375 C-24.15027023 13.02180578 -43.28167139 24.32338607 -61 40 C-62.28970703 41.10601562 -62.28970703 41.10601562 -63.60546875 42.234375 C-98.99954176 73.07054671 -124.98895603 120.359613 -129.484375 167.2890625 C-129.78346321 174.9158119 -128.32163807 180.6615975 -124 187 C-121.10792992 189.89207008 -119.04459979 189.25468874 -114.99158287 189.26171303 C-114.25820938 189.26570909 -113.52483588 189.26970515 -112.76923895 189.27382231 C-110.2864715 189.28488095 -107.80392379 189.28158353 -105.32113647 189.2784729 C-103.53336922 189.28347099 -101.74560423 189.28934534 -99.95784247 189.29602563 C-95.02546825 189.31189863 -90.09315088 189.31526031 -85.1607542 189.31667423 C-79.84920297 189.32035561 -74.53768339 189.33550467 -69.22615051 189.34928894 C-60.01700545 189.37160545 -50.80787158 189.38659227 -41.59870529 189.39665604 C-28.28366078 189.41121721 -14.96865525 189.43674674 -1.65363355 189.46498732 C19.9470465 189.51050202 41.54773214 189.54709744 63.1484375 189.578125 C84.13640324 189.60829142 105.12435526 189.64263288 126.11230469 189.68261719 C127.40514833 189.68507874 128.69799196 189.68754028 130.03001268 189.69007643 C136.5155744 189.70245066 143.00113595 189.71490726 149.48669744 189.72740483 C203.32444583 189.83104264 257.16221133 189.92022274 311 190 C311 190.33 311 190.66 311 191 C254.22508654 191.11442487 197.45018456 191.20253849 140.67517848 191.25532665 C133.97355628 191.26156326 127.27193433 191.26804604 120.5703125 191.2746582 C119.90342541 191.275312 119.23653831 191.27596579 118.54944252 191.2766394 C96.93899649 191.29794097 75.32861588 191.33549362 53.71820947 191.3814861 C30.87835256 191.43000681 8.03852436 191.45998387 -14.80138409 191.47044247 C-28.48250375 191.4773057 -42.16343556 191.49898874 -55.8444974 191.53958233 C-65.22398014 191.56599621 -74.60336566 191.57400402 -83.9828829 191.56750689 C-89.39576287 191.56430194 -94.8083144 191.56924184 -100.22113609 191.59602737 C-105.17850005 191.62037989 -110.13531506 191.62157436 -115.09270443 191.60449447 C-116.88426783 191.6023839 -118.67586564 191.60870946 -120.46736144 191.62441591 C-138.16245014 191.77050811 -138.16245014 191.77050811 -146 186 C-148.25390625 183.6484375 -148.25390625 183.6484375 -149.5625 181.375 C-150.01753906 180.61960938 -150.47257812 179.86421875 -150.94140625 179.0859375 C-154.96476889 171.15798308 -152.96445405 162.09535122 -151 153.8125 C-150.77997314 152.87196777 -150.55994629 151.93143555 -150.33325195 150.96240234 C-146.42185313 134.93216627 -140.95910906 119.38398436 -133.03417969 104.89160156 C-131.9644259 102.93493197 -130.923657 100.96436405 -129.8828125 98.9921875 C-124.71642096 89.35953914 -118.68267493 80.6352889 -112 72 C-111.31808594 71.0925 -110.63617188 70.185 -109.93359375 69.25 C-89.87568684 43.50051481 -63.3976668 24.65658035 -34 11 C-32.82953125 10.45601562 -31.6590625 9.91203125 -30.453125 9.3515625 C-24.20355844 6.5661222 -17.89073214 4.19448538 -11.375 2.125 C-10.69953125 1.90948486 -10.0240625 1.69396973 -9.328125 1.47192383 C-6.02228795 0.46268992 -3.49844237 0 0 0 Z " fill="#E17902" transform="translate(168,37)"/>
<path d="M0 0 C2.8102141 1.78414137 5.60051974 3.58657845 8.359375 5.44921875 C13.72444029 8.60000413 18.60773675 9.33162232 24.75 9.25 C25.44939697 9.24685791 26.14879395 9.24371582 26.86938477 9.24047852 C31.82435396 9.16226319 36.46301378 8.5695474 41.27734375 7.33984375 C41.84582031 7.22769531 42.41429687 7.11554688 43 7 C44.77714844 8.77714844 44.21450494 11.28270998 44.25 13.6875 C44.18051625 20.20353137 42.95761738 23.72493115 38.6875 28.6875 C33.99647741 32.7239613 29.99268669 34.37694421 23.81167603 34.36076355 C22.59178986 34.36488754 21.37190369 34.36901154 20.11505127 34.3732605 C18.77673115 34.36264532 17.4384133 34.35174092 16.10009766 34.34057617 C14.68051166 34.33972929 13.26092435 34.34020624 11.84133911 34.34190369 C7.99872586 34.34276268 4.15639486 34.32515265 0.31384706 34.30418181 C-3.70600666 34.28539893 -7.72586722 34.28366331 -11.74575806 34.28010559 C-19.35297026 34.27078985 -26.96005278 34.24618248 -34.56720793 34.21605712 C-43.22979997 34.18249843 -51.89239828 34.16602341 -60.55503917 34.15097082 C-78.37009958 34.11963248 -96.18503935 34.06688117 -114 34 C-108.5867048 27.44035993 -108.5867048 27.44035993 -105.4375 24.8125 C-101.88579693 21.7844885 -98.42955411 18.66491642 -95 15.5 C-90.39620531 11.25949104 -85.74155525 7.08610497 -81 3 C-78.57642843 3.94226425 -76.20758093 4.89486659 -73.88671875 6.0703125 C-64.53279338 10.55620922 -52.36368875 10.67277053 -42.56640625 7.2578125 C-38.51591559 5.27264052 -34.77416875 2.81332726 -31.08349609 0.22485352 C-20.27976417 -7.23531234 -10.76557291 -6.45934375 0 0 Z " fill="#C82D42" transform="translate(437,326)"/>
<path d="M0 0 C2.42357157 0.94226425 4.79241907 1.89486659 7.11328125 3.0703125 C16.94334729 7.78455376 28.82683732 7.42622335 39.01953125 3.875 C41.21286495 2.96353127 41.21286495 2.96353127 43.875 1.1875 C44.926875 0.5996875 44.926875 0.5996875 46 0 C48.88473937 1.12018463 50.94571601 2.67519039 53.171875 4.79296875 C53.74977783 5.33735596 54.32768066 5.88174316 54.9230957 6.44262695 C55.82741333 7.30633911 55.82741333 7.30633911 56.75 8.1875 C58.00833838 9.37322011 59.26744711 10.55812326 60.52734375 11.7421875 C61.43009033 12.59248535 61.43009033 12.59248535 62.35107422 13.45996094 C65.49204484 16.39351774 68.74744019 19.19188936 72 22 C73.67008348 23.45441915 75.33669243 24.9128366 77 26.375 C77.763125 27.04273438 78.52625 27.71046875 79.3125 28.3984375 C79.869375 28.92695313 80.42625 29.45546875 81 30 C81 30.33 81 30.66 81 31 C62.32838166 31.07009725 43.65679003 31.12299169 24.98506737 31.15543652 C16.31535823 31.17090198 7.64573087 31.19198535 -1.02392578 31.22631836 C-8.58085891 31.25623055 -16.1377328 31.27557734 -23.69472349 31.28226548 C-27.69569251 31.28617467 -31.69649208 31.29535505 -35.69740677 31.31719017 C-39.46484952 31.33758413 -43.23205334 31.34382797 -46.99954605 31.33932304 C-48.38061319 31.34014695 -49.76168849 31.34609542 -51.14270782 31.35761642 C-53.03230474 31.37260418 -54.92203047 31.36715176 -56.81167603 31.36076355 C-58.39623816 31.36491162 -58.39623816 31.36491162 -60.01281166 31.36914349 C-66.07768754 30.61967302 -70.09413511 27.53924838 -74 23 C-77.95269536 17.41170657 -77.28668801 11.56197003 -77 5 C-74.42067674 4.04469509 -73.33320387 3.86337488 -70.7421875 4.92578125 C-67.18364335 6.31979783 -63.88396349 6.25424795 -60.125 6.1875 C-59.10212891 6.1865332 -59.10212891 6.1865332 -58.05859375 6.18554688 C-53.61896902 6.14749295 -49.38123606 5.71495367 -45 5 C-44.731875 5.65226562 -44.46375 6.30453125 -44.1875 6.9765625 C-41.31231901 13.38897274 -38.26467144 17.62479929 -32 21 C-26.31939065 22.89353645 -19.0013931 23.34545208 -13.5078125 20.8828125 C-11.38722374 19.54542141 -11.38722374 19.54542141 -9.5234375 18.09375 C-8 17 -8 17 -6 17 C-3.12901395 11.69971806 -0.93190117 5.96416751 0 0 Z " fill="#C82D42" transform="translate(108,329)"/>
<path d="M0 0 C1.09854756 -0.01292347 1.09854756 -0.01292347 2.21928799 -0.02610803 C4.68637917 -0.05362667 7.15347321 -0.07380519 9.62063599 -0.09381104 C11.38469214 -0.11152849 13.14874546 -0.12953045 14.91279602 -0.14779663 C31.04460658 -0.30705399 47.17727595 -0.39120745 63.30970573 -0.45779037 C75.23096534 -0.50798404 87.15084506 -0.5938278 99.07147872 -0.72641158 C107.45632225 -0.8165195 115.84078818 -0.86425634 124.22609437 -0.88136888 C129.23172481 -0.89281442 134.23559181 -0.92297819 139.24068832 -0.99932098 C143.95765093 -1.07049211 148.671988 -1.08891479 153.38941383 -1.06820297 C155.11316075 -1.06962367 156.83701713 -1.08964568 158.56028175 -1.13044357 C167.83152136 -1.33851789 174.15209441 -0.90148619 181.09039307 5.71081543 C185.96878052 10.65378973 185.96878052 10.65378973 185.96878052 12.1942749 C185.13794008 12.19481967 184.30709965 12.19536444 183.45108223 12.19592571 C163.2103471 12.21091014 142.96983181 12.25342417 122.72921944 12.32636547 C112.94088386 12.36097986 103.15268859 12.38636633 93.36428833 12.38983154 C84.83008905 12.39287638 76.29613988 12.41343661 67.76203716 12.45479947 C63.2455954 12.47608408 58.72950881 12.48875351 54.21301651 12.4804287 C49.95615877 12.47285969 45.70001898 12.48882612 41.44329262 12.52233505 C39.88655907 12.53053417 38.32975366 12.53035877 36.77302742 12.52087212 C27.25311197 12.4686322 18.66643346 12.92504955 11.33244514 19.70756817 C7.37431757 24.20424409 5.76596604 28.03367762 5.34378052 33.9442749 C5.26901489 34.92911865 5.19424927 35.9139624 5.11721802 36.9286499 C5.06823364 37.67630615 5.01924927 38.4239624 4.96878052 39.1942749 C-14.82243899 28.82061637 -14.82243899 28.82061637 -18.03121948 19.1942749 C-18.53323187 13.06972372 -18.13050292 10.06909845 -14.03121948 5.1942749 C-9.06973437 0.82344278 -6.59001084 0.06686032 0 0 Z " fill="#67C943" transform="translate(33.031219482421875,374.80572509765625)"/>
<path d="M0 0 C1.10389887 -0.00958323 1.10389887 -0.00958323 2.23009872 -0.01936007 C4.68553525 -0.03456859 7.13934734 -0.01417818 9.59472656 0.00622559 C11.35925836 0.00272312 13.12378699 -0.00293688 14.88830566 -0.0105896 C19.67353466 -0.02482922 24.45818844 -0.00778411 29.24336243 0.01569557 C34.25338519 0.03581341 39.26338428 0.02992453 44.2734375 0.02758789 C52.68661985 0.02764145 61.09957753 0.04739232 69.51269531 0.07946777 C79.23644027 0.11636009 88.95989094 0.12514319 98.68369675 0.11817026 C108.04149088 0.1118628 117.39918422 0.12262407 126.75695801 0.14213562 C130.73768552 0.15030573 134.71836148 0.15301988 138.69909668 0.15144348 C143.38758406 0.15056388 148.07579222 0.16480111 152.76420593 0.19067001 C154.48388821 0.19782594 156.2036002 0.1999182 157.92329407 0.19655228 C160.27273231 0.19283124 162.62135853 0.20760593 164.97070312 0.22705078 C166.28476135 0.2307795 167.59881958 0.23450821 168.95269775 0.23834991 C173.42413448 0.7232693 176.82266324 2.06935423 180.12988281 5.15661621 C183.39432848 9.42550669 184.61625313 11.41113756 184.54785156 16.74645996 C184.53882813 17.65653809 184.52980469 18.56661621 184.52050781 19.50427246 C184.50310547 20.55228027 184.50310547 20.55228027 184.48535156 21.62145996 C184.15535156 21.62145996 183.82535156 21.62145996 183.48535156 21.62145996 C183.48535156 18.65145996 183.48535156 15.68145996 183.48535156 12.62145996 C116.49535156 12.62145996 49.50535156 12.62145996 -19.51464844 12.62145996 C-8.69221439 -0.0047131 -8.69221439 -0.0047131 0 0 Z " fill="#67C943" transform="translate(312.5146484375,374.3785400390625)"/>
<path d="M0 0 C1.17626953 -0.02900391 2.35253906 -0.05800781 3.56445312 -0.08789062 C14.44040548 -0.16781566 14.44040548 -0.16781566 19.1875 4.3125 C22.60701767 7.86164578 22.53985321 10.65443864 22.48046875 15.484375 C22.47622391 16.1667926 22.47197906 16.84921021 22.46760559 17.55230713 C22.45086972 19.72278004 22.41322959 21.89230979 22.375 24.0625 C22.35994646 25.53774697 22.34625922 27.01300855 22.33398438 28.48828125 C22.30098377 32.09665844 22.24923767 35.7044871 22.1875 39.3125 C15.35420828 42.8930924 9.84165749 43.44675148 2.1875 42.3125 C-2.22080038 40.50328229 -5.93484844 38.0600625 -9.8125 35.3125 C-10.74578125 34.70277344 -11.6790625 34.09304688 -12.640625 33.46484375 C-17.73691325 30.07476897 -22.01425211 26.90899577 -24.8125 21.3125 C-25.35610446 16.35767906 -25.37687074 12.44124148 -23.125 7.9375 C-16.0583183 -0.08413869 -10.14607289 0.08257791 0 0 Z " fill="#67C743" transform="translate(39.8125,278.6875)"/>
<path d="M0 0 C9.90299109 -0.86112966 17.39049981 4.07283321 25.37890625 9.3984375 C27.77035055 10.85967768 29.91325249 11.81559576 32.5625 12.6875 C36 14 36 14 36.83203125 15.71875 C38.56170877 19.0971168 41.33409653 21.3171132 44.125 23.8125 C44.71394043 24.3472998 45.30288086 24.88209961 45.90966797 25.43310547 C49.56157097 28.73997836 53.25043292 32.00353902 56.9765625 35.2265625 C59.51501171 37.45138092 62.00641776 39.72503319 64.5 42 C68.237091 45.4090062 72.00841603 48.76695306 75.83203125 52.078125 C77.56003709 53.60997883 79.25943886 55.16103914 80.94921875 56.734375 C81.47330322 57.22107666 81.9973877 57.70777832 82.53735352 58.20922852 C83.56599279 59.16700351 84.59143824 60.12822483 85.61303711 61.09350586 C88.89243777 64.14435388 92.23238557 66.61309887 96 69 C93 72 90 75 87 78 C82.85310018 76.33922701 79.93283833 73.34019055 76.75 70.3125 C75.58274649 69.21798673 74.41478071 68.12423255 73.24609375 67.03125 C72.68519043 66.5053125 72.12428711 65.979375 71.54638672 65.4375 C69.06549177 63.1312939 66.50961693 60.91608342 63.94921875 58.69921875 C59.04651697 54.4253204 54.24887834 50.03080529 49.421875 45.671875 C45.67872391 42.29614978 41.93203528 38.92862565 38.125 35.625 C34.158251 32.17216181 30.29317331 28.61122619 26.42456055 25.04956055 C23.02076307 21.92103464 19.57345205 18.85349211 16.078125 15.828125 C12.47220304 12.65599816 8.95044054 9.39018007 5.41796875 6.13671875 C2.9971754 3.9003945 2.9971754 3.9003945 0 2 C0 1.34 0 0.68 0 0 Z " fill="#FBCF3B" transform="translate(170,321)"/>
<path d="M0 0 C2.83543366 0.06058619 5.66600145 0.14783391 8.5 0.25 C9.68722656 0.27126953 9.68722656 0.27126953 10.8984375 0.29296875 C18.17884917 0.59134628 23.95654348 2.59739995 29 8 C28.51265381 8.93175049 28.02530762 9.86350098 27.52319336 10.82348633 C25.42335808 15.75025137 25.59568966 20.54158658 25.62890625 25.82421875 C25.61153684 27.92513194 25.59395234 30.02604337 25.57617188 32.12695312 C25.56607061 35.41873282 25.56251181 38.71040265 25.56420898 42.00219727 C25.56064733 45.19320242 25.5333511 48.38336344 25.50390625 51.57421875 C25.51208878 52.55968185 25.5202713 53.54514496 25.52870178 54.56047058 C25.45453608 61.34534831 25.45453608 61.34534831 23.18334961 64.61645508 C19.90931985 66.69114217 17.79183575 66.59871091 14 66 C11.09679486 63.96622784 9.27277094 62.37197922 8.5625 58.79946899 C8.40702622 56.04842834 8.41308444 53.33691929 8.46875 50.58203125 C8.46548706 49.56960861 8.46222412 48.55718597 8.4588623 47.51408386 C8.44573481 43.19573903 8.49023767 38.87843443 8.52978516 34.56030273 C8.5503979 31.4005608 8.54138574 28.24180115 8.53125 25.08203125 C8.55086792 24.12126175 8.57048584 23.16049225 8.59069824 22.17060852 C8.55715866 13.32709774 5.37196142 6.90634234 0 0 Z " fill="#DF2827" transform="translate(68,271)"/>
<path d="M0 0 C1.10605433 -0.00346153 1.10605433 -0.00346153 2.2344532 -0.006993 C4.71879405 -0.01230979 7.20287851 -0.00329503 9.68720627 0.00558662 C11.48082247 0.0047149 13.27443842 0.00296453 15.06805301 0.00040829 C20.00733106 -0.00407577 24.94652282 0.00395297 29.88578987 0.01396441 C35.20819603 0.02258139 40.5305971 0.01968 45.85300827 0.01815987 C55.07795749 0.0171099 64.30287847 0.02339813 73.52782059 0.03463554 C86.86562322 0.05087251 100.20341217 0.0560967 113.54122362 0.05861153 C135.17963427 0.06299147 156.81802987 0.07630867 178.45643234 0.09521675 C199.47921803 0.11356782 220.50199964 0.12772811 241.52479172 0.13623238 C243.4677495 0.13702055 243.4677495 0.13702055 245.44995895 0.13782464 C251.94796331 0.14043467 258.4459677 0.14296209 264.94397211 0.14544845 C318.8726151 0.16619025 372.80124174 0.20142391 426.72986984 0.24609566 C426.72986984 0.57609566 426.72986984 0.90609566 426.72986984 1.24609566 C220.80986984 1.74109566 220.80986984 1.74109566 10.72986984 2.24609566 C8.44760826 7.9517496 7.65294552 12.21724601 9.72986984 18.05859566 C10.05986984 18.78047066 10.38986984 19.50234566 10.72986984 20.24609566 C10.72986984 21.23609566 10.72986984 22.22609566 10.72986984 23.24609566 C7.66603082 23.15890102 4.60502933 23.05199168 1.54236984 22.93359566 C0.24589523 22.89975777 0.24589523 22.89975777 -1.07677078 22.86523628 C-5.91588066 22.66128912 -9.3358517 22.36853888 -13.27013016 19.24609566 C-15.61145893 16.2358158 -15.68833051 12.96563775 -15.59044266 9.21093941 C-15.07400599 6.04304132 -13.55766614 4.4065463 -11.27013016 2.24609566 C-7.61726394 -0.17457005 -4.30705617 -0.00248388 0 0 Z " fill="#A92322" transform="translate(46.2701301574707,241.75390434265137)"/>
<path d="M0 0 C0 8.58 0 17.16 0 26 C-5.55545244 28.77772622 -7.30472844 29.39421008 -13.125 29.3125 C-14.32382812 29.30863281 -15.52265625 29.30476563 -16.7578125 29.30078125 C-19.76436738 29.02185989 -21.47317301 28.57769546 -24 27 C-24.67620547 19.59930683 -24.62625441 14.01105818 -19.96875 7.98046875 C-13.60052989 1.57434257 -9.13602828 0 0 0 Z " fill="#7FD060" transform="translate(62,292)"/>
<path d="M0 0 C2.79297711 0.44099639 5.31340243 1.10446748 8 2 C10.22574335 2.22451458 12.45581519 2.40782878 14.6875 2.5625 C15.86699219 2.64628906 17.04648437 2.73007812 18.26171875 2.81640625 C19.61716797 2.90728516 19.61716797 2.90728516 21 3 C21.14695312 4.2684375 21.14695312 4.2684375 21.296875 5.5625 C22.41570657 14.05018775 24.23914534 19.85871801 29 27 C26.45767658 27.08152344 23.91800798 27.14073716 21.375 27.1875 C20.66214844 27.21263672 19.94929688 27.23777344 19.21484375 27.26367188 C13.03076166 27.34877392 9.07278029 25.78355513 4.3125 21.6875 C-0.81611051 15.72722292 -1.31637458 11.18437764 -1.203125 3.51171875 C-1 1 -1 1 0 0 Z " fill="#A92537" transform="translate(32,333)"/>
<path d="M0 0 C3.5 0.8125 3.5 0.8125 5.4375 1.9375 C6.71496069 4.19184239 7.28171761 6.12329264 7.171875 8.7265625 C5.5796499 13.66986602 1.09878259 17.24157176 -2.5 20.8125 C-3.25023437 21.58722656 -4.00046875 22.36195312 -4.7734375 23.16015625 C-7.5851497 26.03980945 -10.14112683 28.57325122 -13.5 30.8125 C-19.60206897 30.59456897 -19.60206897 30.59456897 -22.4375 28.125 C-23.92482538 24.88788005 -24.18241405 23.36105304 -23.5 19.8125 C-21.49294867 16.82765444 -19.02878181 14.35915306 -16.5 11.8125 C-15.64664063 10.93335937 -14.79328125 10.05421875 -13.9140625 9.1484375 C-4.6775605 -0.2505836 -4.6775605 -0.2505836 0 0 Z " fill="#090500" transform="translate(264.5,93.1875)"/>
<path d="M0 0 C3.30493164 0.82446289 3.30493164 0.82446289 5.24243164 1.94946289 C7.07532507 5.18398071 6.90497847 7.16417723 6.30493164 10.82446289 C4.35518611 13.86812505 1.85281422 16.27658032 -0.69506836 18.82446289 C-1.57549805 19.78739258 -2.45592773 20.75032227 -3.36303711 21.74243164 C-4.30568484 22.75021839 -5.24969164 23.75673568 -6.19506836 24.76196289 C-7.07163086 25.69911133 -7.94819336 26.63625977 -8.85131836 27.60180664 C-12.25109889 30.25905269 -14.41138734 30.75432075 -18.69506836 30.82446289 C-21.63256836 28.76196289 -21.63256836 28.76196289 -23.69506836 25.82446289 C-24.19534288 22.11233125 -24.09911827 20.41781289 -21.97021484 17.29150391 C-19.37733823 14.63490472 -16.77784042 11.9915669 -14.13256836 9.38696289 C-13.23731445 8.45174805 -12.34206055 7.5165332 -11.41967773 6.55297852 C-10.53989258 5.67448242 -9.66010742 4.79598633 -8.75366211 3.89086914 C-7.9524292 3.08593018 -7.15119629 2.28099121 -6.32568359 1.45166016 C-3.69506836 -0.17553711 -3.69506836 -0.17553711 0 0 Z " fill="#050300" transform="translate(388.695068359375,93.175537109375)"/>
<path d="M0 0 C2 1.625 2 1.625 3 4 C3.18284829 9.30937268 1.75142669 11.67850599 -1.82421875 15.5859375 C-3.429678 17.19801447 -5.05141871 18.79400994 -6.6875 20.375 C-7.49123047 21.19355469 -8.29496094 22.01210937 -9.12304688 22.85546875 C-16.01349294 29.65013592 -16.01349294 29.65013592 -22 30 C-24.875 28.5 -24.875 28.5 -27 26 C-27.75 22.75 -27.75 22.75 -27 19 C-25.03782751 15.96345765 -22.56017769 13.53825836 -20 11 C-19.05095798 10.02844175 -18.10310861 9.05571752 -17.15625 8.08203125 C-7.54468866 -1.72071847 -7.54468866 -1.72071847 0 0 Z " fill="#050300" transform="translate(144,94)"/>
<path d="M0 0 C4.99327833 1.47107292 8.51498763 6.048072 12.03491211 9.68041992 C12.90954102 10.52797852 13.78416992 11.37553711 14.68530273 12.2487793 C21.6556604 19.29531573 21.6556604 19.29531573 21.76147461 23.58666992 C20.9534527 27.2750523 20.28455679 28.57487846 17.09741211 30.61791992 C14.1345817 31.26699359 12.93142244 31.45284952 10.09741211 30.61791992 C6.39376241 27.97806403 3.31835053 24.81473622 0.15991211 21.55541992 C-0.7147168 20.70786133 -1.5893457 19.86030273 -2.49047852 18.98706055 C-9.46083618 11.94052411 -9.46083618 11.94052411 -9.56665039 7.64916992 C-8.38286612 2.24554288 -5.67621531 -0.13996147 0 0 Z " fill="#030200" transform="translate(187.902587890625,152.382080078125)"/>
<path d="M0 0 C4.99280974 1.47616538 8.5139224 6.04917001 12.03491211 9.68261719 C12.90954102 10.53017578 13.78416992 11.37773437 14.68530273 12.25097656 C21.65564726 19.29749972 21.65564726 19.29749972 21.76538086 23.58886719 C20.96016031 27.24296747 20.2257104 28.5620262 17.09741211 30.62011719 C14.34741211 31.30761719 14.34741211 31.30761719 11.09741211 30.62011719 C8.10555792 28.62116406 5.64453392 26.14991164 3.09741211 23.62011719 C2.12371227 22.671935 1.14973857 21.72403398 0.17553711 20.77636719 C-8.75108312 12.01396104 -8.75108312 12.01396104 -9.21508789 7.74511719 C-8.90258789 4.62011719 -8.90258789 4.62011719 -7.34008789 2.24511719 C-4.80457021 0.55477207 -3.05719773 -0.07817492 0 0 Z " fill="#030200" transform="translate(311.902587890625,152.3798828125)"/>
<path d="M0 0 C0.99 1.98 1.98 3.96 3 6 C1.62328125 6.27263672 1.62328125 6.27263672 0.21875 6.55078125 C-7.84797166 8.14836957 -7.84797166 8.14836957 -15.625 10.75 C-19.06581565 12.02437617 -19.73058381 12.05649257 -23 11 C-22.0409375 10.443125 -22.0409375 10.443125 -21.0625 9.875 C-18.35705198 7.4155018 -18.4556857 5.53995842 -18 2 C-16.12612523 1.6603981 -14.25083303 1.32861309 -12.375 1 C-11.33085937 0.814375 -10.28671875 0.62875 -9.2109375 0.4375 C-6.09425135 0.01284203 -3.14069188 -0.07545206 0 0 Z " fill="#EA7D02" transform="translate(195,24)"/>
</svg>
