<?xml version="1.0" encoding="UTF-8"?>
<svg version="1.1" xmlns="http://www.w3.org/2000/svg" width="157" height="50">
<path d="M0 0 C5.24769825 3.1061418 9.42703803 7.0936141 11.375 12.9375 C11.775 21.3375 11.775 21.3375 9.375 24.9375 C10.035 24.9375 10.695 24.9375 11.375 24.9375 C13.13281629 31.80896369 11.63627903 38.29723619 9.375 44.9375 C8.05455017 46.59291077 8.05455017 46.59291077 6.375 47.9375 C3.40947627 48.24814889 0.65838271 48.38165071 -2.30859375 48.37109375 C-3.16050797 48.3763356 -4.01242218 48.38157745 -4.89015198 48.38697815 C-6.69148672 48.39340004 -8.49286339 48.39205917 -10.29418945 48.38354492 C-13.04910089 48.37504136 -15.80193447 48.40378169 -18.55664062 48.43554688 C-20.30729105 48.43715916 -22.05794514 48.43658083 -23.80859375 48.43359375 C-24.63161484 48.44482773 -25.45463593 48.45606171 -26.30259705 48.46763611 C-32.0098198 48.39817905 -32.0098198 48.39817905 -35.12426758 46.06591797 C-38.90881445 40.69847375 -39.14397526 32.2949469 -38.625 25.9375 C-37.625 23.5 -37.625 23.5 -36.625 21.9375 C-36.955 21.6075 -37.285 21.2775 -37.625 20.9375 C-38.30667389 15.7299585 -38.03508915 11.10113577 -35.1015625 6.57421875 C-26.52014658 -2.93798567 -11.55039718 -5.37842922 0 0 Z M-31.625 6.9375 C-33.63364359 9.3101974 -33.63364359 9.3101974 -34.625 11.9375 C-34.295 13.2575 -33.965 14.5775 -33.625 15.9375 C-20.095 15.9375 -6.565 15.9375 7.375 15.9375 C7.705 14.9475 8.035 13.9575 8.375 12.9375 C5.40579401 7.24652186 1.24906017 3.20049597 -4.9375 1.18359375 C-14.58102311 -1.08453751 -23.84978891 0.48976397 -31.625 6.9375 Z M-34.625 17.9375 C-34.625 18.5975 -34.625 19.2575 -34.625 19.9375 C-32.73007254 20.13394384 -30.83399097 20.31927288 -28.9375 20.5 C-27.88175781 20.60441406 -26.82601563 20.70882813 -25.73828125 20.81640625 C-22.79350277 20.93094594 -20.48495391 20.54691971 -17.625 19.9375 C-15.29085471 20.26509934 -12.95747761 20.59823053 -10.625 20.9375 C-9.965 20.7725 -9.305 20.6075 -8.625 20.4375 C-6.625 19.9375 -6.625 19.9375 -3.375 20.4375 C0.87902316 21.00470309 4.15565442 20.60371246 8.375 19.9375 C8.375 19.2775 8.375 18.6175 8.375 17.9375 C-5.815 17.9375 -20.005 17.9375 -34.625 17.9375 Z M-31.625 21.9375 C-31.955 22.5975 -32.285 23.2575 -32.625 23.9375 C-30.975 23.9375 -29.325 23.9375 -27.625 23.9375 C-28.945 23.2775 -30.265 22.6175 -31.625 21.9375 Z M-19.625 21.9375 C-20.285 22.5975 -20.945 23.2575 -21.625 23.9375 C-19.975 23.9375 -18.325 23.9375 -16.625 23.9375 C-16.955 23.2775 -17.285 22.6175 -17.625 21.9375 C-18.285 21.9375 -18.945 21.9375 -19.625 21.9375 Z M-8.625 21.9375 C-8.955 22.5975 -9.285 23.2575 -9.625 23.9375 C-7.975 23.9375 -6.325 23.9375 -4.625 23.9375 C-5.945 23.2775 -7.265 22.6175 -8.625 21.9375 Z M3.375 21.9375 C2.715 22.5975 2.055 23.2575 1.375 23.9375 C3.025 23.9375 4.675 23.9375 6.375 23.9375 C6.045 23.2775 5.715 22.6175 5.375 21.9375 C4.715 21.9375 4.055 21.9375 3.375 21.9375 Z M-35.625 26.9375 C-35.955 27.9275 -36.285 28.9175 -36.625 29.9375 C-34.83842243 32.15120051 -34.83842243 32.15120051 -32.4609375 32.1328125 C-31.64882813 32.10960937 -30.83671875 32.08640625 -30 32.0625 C-29.18273437 32.04445313 -28.36546875 32.02640625 -27.5234375 32.0078125 C-26.89695312 31.98460937 -26.27046875 31.96140625 -25.625 31.9375 C-28.83318244 28.05015631 -28.83318244 28.05015631 -33.4375 26.625 C-34.159375 26.728125 -34.88125 26.83125 -35.625 26.9375 Z M-18.625 26.9375 C-16.975 28.9175 -15.325 30.8975 -13.625 32.9375 C-9.90639821 31.39876823 -9.26866459 30.46238612 -6.625 26.9375 C-10.585 26.9375 -14.545 26.9375 -18.625 26.9375 Z M-6.625 31.9375 C-1.675 31.9375 3.275 31.9375 8.375 31.9375 C8.705 30.6175 9.035 29.2975 9.375 27.9375 C7.64652533 26.20902533 5.4176665 26.64360507 3.0625 26.5625 C2.09699219 26.51351563 1.13148437 26.46453125 0.13671875 26.4140625 C-3.3808629 26.77040737 -3.3808629 26.77040737 -6.625 31.9375 Z M-21.625 29.9375 C-21.955 30.5975 -22.285 31.2575 -22.625 31.9375 C-21.635 31.6075 -20.645 31.2775 -19.625 30.9375 C-20.285 30.6075 -20.945 30.2775 -21.625 29.9375 Z M-34.625 34.9375 C-34.625 35.2675 -34.625 35.5975 -34.625 35.9375 C-33.5525 36.081875 -32.48 36.22625 -31.375 36.375 C-27.625 36.9375 -27.625 36.9375 -25.625 37.5625 C-23.39158094 38.09300909 -23.39158094 38.09300909 -20.1875 37.4375 C-16.88971697 36.97465326 -14.79434429 37.07313337 -11.625 37.9375 C-13.48692283 35.94482416 -15.01492958 35.00903231 -17.73632812 34.68994141 C-20.28811554 34.64236397 -22.82384745 34.67651776 -25.375 34.75 C-26.26316406 34.76353516 -27.15132812 34.77707031 -28.06640625 34.79101562 C-30.25322578 34.82628691 -32.43879966 34.87557248 -34.625 34.9375 Z M-10.625 34.9375 C-10.955 35.5975 -11.285 36.2575 -11.625 36.9375 C-10.0471875 36.9065625 -10.0471875 36.9065625 -8.4375 36.875 C-5.29176527 36.92656942 -2.67614124 37.30932386 0.375 37.9375 C0.705 37.6075 1.035 37.2775 1.375 36.9375 C3.70317964 36.56989269 6.0368385 36.23508419 8.375 35.9375 C8.375 35.6075 8.375 35.2775 8.375 34.9375 C2.105 34.9375 -4.165 34.9375 -10.625 34.9375 Z M-33.625 38.9375 C-33.625 40.5875 -33.625 42.2375 -33.625 43.9375 C-29.54577668 45.87513108 -26.24603523 46.19466472 -21.75 46.203125 C-20.43515625 46.20570312 -19.1203125 46.20828125 -17.765625 46.2109375 C-16.7456543 46.20465332 -16.7456543 46.20465332 -15.70507812 46.19824219 C-13.63121283 46.18753209 -11.55821362 46.1981603 -9.484375 46.2109375 C-8.16953125 46.20835938 -6.8546875 46.20578125 -5.5 46.203125 C-4.30117188 46.20086914 -3.10234375 46.19861328 -1.8671875 46.19628906 C1.33804202 45.94044996 3.55313325 45.46406235 6.375 43.9375 C7.26886164 41.38974694 7.26886164 41.38974694 7.375 38.9375 C6.65054688 39.02128906 5.92609375 39.10507812 5.1796875 39.19140625 C-0.03570296 39.74076071 -4.44726695 39.92373487 -9.625 38.9375 C-10.45 39.1025 -11.275 39.2675 -12.125 39.4375 C-14.625 39.9375 -14.625 39.9375 -17.5625 39.4375 C-20.60529372 38.77069632 -20.60529372 38.77069632 -23.5625 39.4375 C-27.13887747 40.02139836 -30.07725286 39.57609449 -33.625 38.9375 Z " fill="#CBCBCB" transform="translate(38.625,2.0625)"/>
<path d="M0 0 C1.76949095 -0.10815225 3.54087487 -0.18566083 5.3125 -0.25 C6.29863281 -0.29640625 7.28476563 -0.3428125 8.30078125 -0.390625 C11 0 11 0 12.87109375 1.8671875 C14.37789418 4.71394541 13.87377965 5.94177124 13 9 C12.66055205 10.99897128 12.32578384 12.99875639 12 15 C13.32 15 14.64 15 16 15 C15.67 16.32 15.34 17.64 15 19 C13.35 19 11.7 19 10 19 C9.67 16.36 9.34 13.72 9 11 C7.68 11 6.36 11 5 11 C5 12.32 5 13.64 5 15 C5.66 15.33 6.32 15.66 7 16 C7 16.99 7 17.98 7 19 C4.36 19 1.72 19 -1 19 C-1 18.34 -1 17.68 -1 17 C-0.34 16.67 0.32 16.34 1 16 C1.46954261 12.95418731 1.46954261 12.95418731 1.625 9.4375 C1.69976562 8.23996094 1.77453125 7.04242188 1.8515625 5.80859375 C1.90054688 4.88175781 1.94953125 3.95492188 2 3 C1.34 3 0.68 3 0 3 C0 2.01 0 1.02 0 0 Z M5 3 C5.33 4.65 5.66 6.3 6 8 C7.65 7.34 9.3 6.68 11 6 C10.67 5.01 10.34 4.02 10 3 C8.35 3 6.7 3 5 3 Z " fill="#CBCBCB" transform="translate(141,3)"/>
<path d="M0 0 C1.31677734 -0.02126953 1.31677734 -0.02126953 2.66015625 -0.04296875 C4.9375 0.1875 4.9375 0.1875 6.9375 2.1875 C7.0625 4.8125 7.0625 4.8125 6.9375 7.1875 C5.9475 7.1875 4.9575 7.1875 3.9375 7.1875 C3.9375 5.8675 3.9375 4.5475 3.9375 3.1875 C1.6275 3.1875 -0.6825 3.1875 -3.0625 3.1875 C-3.0625 4.8375 -3.0625 6.4875 -3.0625 8.1875 C-2.0725 8.1875 -1.0825 8.1875 -0.0625 8.1875 C-0.0625 7.1975 -0.0625 6.2075 -0.0625 5.1875 C0.5975 5.1875 1.2575 5.1875 1.9375 5.1875 C1.9375 8.1575 1.9375 11.1275 1.9375 14.1875 C1.2775 14.1875 0.6175 14.1875 -0.0625 14.1875 C-0.0625 13.1975 -0.0625 12.2075 -0.0625 11.1875 C-1.0525 11.1875 -2.0425 11.1875 -3.0625 11.1875 C-3.0625 12.8375 -3.0625 14.4875 -3.0625 16.1875 C-0.7525 16.1875 1.5575 16.1875 3.9375 16.1875 C4.2675 14.5375 4.5975 12.8875 4.9375 11.1875 C5.5975 11.5175 6.2575 11.8475 6.9375 12.1875 C6.6075 14.4975 6.2775 16.8075 5.9375 19.1875 C1.3175 19.1875 -3.3025 19.1875 -8.0625 19.1875 C-7.5675 17.7025 -7.5675 17.7025 -7.0625 16.1875 C-6.83798542 13.96175665 -6.65467122 11.73168481 -6.5 9.5 C-6.41621094 8.32050781 -6.33242187 7.14101562 -6.24609375 5.92578125 C-6.18550781 5.02214844 -6.12492187 4.11851562 -6.0625 3.1875 C-6.7225 3.1875 -7.3825 3.1875 -8.0625 3.1875 C-8.0625 2.5275 -8.0625 1.8675 -8.0625 1.1875 C-5.12020079 0.2067336 -3.0716216 0.02261872 0 0 Z " fill="#CBCBCB" transform="translate(132.0625,2.8125)"/>
<path d="M0 0 C1.31677734 -0.02126953 1.31677734 -0.02126953 2.66015625 -0.04296875 C4.9375 0.1875 4.9375 0.1875 6.9375 2.1875 C7.0625 4.8125 7.0625 4.8125 6.9375 7.1875 C5.9475 7.1875 4.9575 7.1875 3.9375 7.1875 C3.9375 5.8675 3.9375 4.5475 3.9375 3.1875 C1.6275 3.1875 -0.6825 3.1875 -3.0625 3.1875 C-3.0625 4.8375 -3.0625 6.4875 -3.0625 8.1875 C-2.0725 8.1875 -1.0825 8.1875 -0.0625 8.1875 C-0.0625 7.1975 -0.0625 6.2075 -0.0625 5.1875 C0.5975 5.1875 1.2575 5.1875 1.9375 5.1875 C1.9375 8.1575 1.9375 11.1275 1.9375 14.1875 C1.2775 14.1875 0.6175 14.1875 -0.0625 14.1875 C-0.0625 13.1975 -0.0625 12.2075 -0.0625 11.1875 C-1.0525 11.1875 -2.0425 11.1875 -3.0625 11.1875 C-3.0625 12.8375 -3.0625 14.4875 -3.0625 16.1875 C-0.7525 16.1875 1.5575 16.1875 3.9375 16.1875 C4.2675 14.5375 4.5975 12.8875 4.9375 11.1875 C5.5975 11.5175 6.2575 11.8475 6.9375 12.1875 C6.6075 14.4975 6.2775 16.8075 5.9375 19.1875 C1.3175 19.1875 -3.3025 19.1875 -8.0625 19.1875 C-7.5675 17.7025 -7.5675 17.7025 -7.0625 16.1875 C-6.83798542 13.96175665 -6.65467122 11.73168481 -6.5 9.5 C-6.41621094 8.32050781 -6.33242187 7.14101563 -6.24609375 5.92578125 C-6.18550781 5.02214844 -6.12492187 4.11851563 -6.0625 3.1875 C-6.7225 3.1875 -7.3825 3.1875 -8.0625 3.1875 C-8.0625 2.5275 -8.0625 1.8675 -8.0625 1.1875 C-5.12020079 0.2067336 -3.0716216 0.02261872 0 0 Z " fill="#CBCBCB" transform="translate(132.0625,28.8125)"/>
<path d="M0 0 C1.76949095 -0.10815225 3.54087487 -0.18566083 5.3125 -0.25 C6.29863281 -0.29640625 7.28476563 -0.3428125 8.30078125 -0.390625 C11 0 11 0 12.828125 1.671875 C14.97986812 5.94667132 14.60062315 10.34340404 14 15 C12.625 17.6875 12.625 17.6875 10 19 C6.63806353 19.3003611 3.36437225 19.23114008 0 19 C0.33 18.01 0.66 17.02 1 16 C1.22451458 13.77425665 1.40782878 11.54418481 1.5625 9.3125 C1.64628906 8.13300781 1.73007812 6.95351562 1.81640625 5.73828125 C1.87699219 4.83464844 1.93757813 3.93101562 2 3 C1.01 2.67 0.02 2.34 -1 2 C-0.67 1.34 -0.34 0.68 0 0 Z M5 3 C5.33 4.65 5.66 6.3 6 8 C7.65 7.34 9.3 6.68 11 6 C10.34 5.01 9.68 4.02 9 3 C7.68 3 6.36 3 5 3 Z M5 11 C5 12.65 5 14.3 5 16 C6.65 16 8.3 16 10 16 C10.59070014 14.05396726 10.59070014 14.05396726 11 12 C9.93354885 10.70366379 9.93354885 10.70366379 7.4375 10.9375 C6.633125 10.958125 5.82875 10.97875 5 11 Z " fill="#CBCBCB" transform="translate(60,3)"/>
<path d="M0 0 C1.76949095 -0.10815225 3.54087487 -0.18566083 5.3125 -0.25 C6.29863281 -0.29640625 7.28476563 -0.3428125 8.30078125 -0.390625 C11 0 11 0 12.90625 1.65625 C14.35178767 4.75383073 13.93482738 6.44602632 13.1875 9.75 C12.97480469 10.73484375 12.76210937 11.7196875 12.54296875 12.734375 C12.36378906 13.48203125 12.18460938 14.2296875 12 15 C13.32 15.33 14.64 15.66 16 16 C15.67 16.99 15.34 17.98 15 19 C13.35 19 11.7 19 10 19 C9.67 16.36 9.34 13.72 9 11 C7.68 11 6.36 11 5 11 C5 12.32 5 13.64 5 15 C5.66 15.33 6.32 15.66 7 16 C7 16.99 7 17.98 7 19 C4.36 19 1.72 19 -1 19 C-1 18.34 -1 17.68 -1 17 C-0.34 16.67 0.32 16.34 1 16 C1.46954261 12.95418731 1.46954261 12.95418731 1.625 9.4375 C1.69976562 8.23996094 1.77453125 7.04242188 1.8515625 5.80859375 C1.90054688 4.88175781 1.94953125 3.95492188 2 3 C1.34 3 0.68 3 0 3 C0 2.01 0 1.02 0 0 Z M5 3 C4.67 4.32 4.34 5.64 4 7 C5.84725052 7.69159401 5.84725052 7.69159401 8 8 C8.99 7.34 9.98 6.68 11 6 C10.67 5.01 10.34 4.02 10 3 C8.35 3 6.7 3 5 3 Z " fill="#CBCBCB" transform="translate(92,3)"/>
<path d="M0 0 C1.65 0 3.3 0 5 0 C5.33 0.99 5.66 1.98 6 3 C5.34 3 4.68 3 4 3 C4 4.65 4 6.3 4 8 C5.98 8 7.96 8 10 8 C9.67 6.35 9.34 4.7 9 3 C8.34 3 7.68 3 7 3 C7.33 2.01 7.66 1.02 8 0 C9.65 0 11.3 0 13 0 C13.33 0.99 13.66 1.98 14 3 C13.34 3 12.68 3 12 3 C12.11344376 5.1464753 12.24106345 7.29220592 12.375 9.4375 C12.44460937 10.63246094 12.51421875 11.82742187 12.5859375 13.05859375 C12.72257812 14.02925781 12.85921875 14.99992187 13 16 C13.66 16.33 14.32 16.66 15 17 C15 17.66 15 18.32 15 19 C12.36 19 9.72 19 7 19 C7 18.34 7 17.68 7 17 C7.66 16.67 8.32 16.34 9 16 C9.65555119 13.47266765 9.65555119 13.47266765 10 11 C8.02 11 6.04 11 4 11 C4.66 13.64 5.32 16.28 6 19 C3.69 19 1.38 19 -1 19 C-1 18.01 -1 17.02 -1 16 C-0.34 16 0.32 16 1 16 C1 11.71 1 7.42 1 3 C0.34 3 -0.32 3 -1 3 C-0.67 2.01 -0.34 1.02 0 0 Z " fill="#CBCBCB" transform="translate(61,29)"/>
<path d="M0 0 C2.375 1.3125 2.375 1.3125 4 4 C4.89572375 9.44131248 4.93326074 13.57266004 1.875 18.25 C-1 20 -1 20 -4.125 20.125 C-7 19 -7 19 -8.875 17 C-10.6212166 12.34342241 -10.9941344 7.46145941 -9.10546875 2.78515625 C-6.90295924 -0.77154639 -3.86069503 -0.3860695 0 0 Z M-7 5 C-7.57540171 10.27434278 -7.57540171 10.27434278 -5.8125 15.0625 C-3.26271335 16.38135516 -1.68253902 15.7975116 1 15 C1.0270043 13.54176788 1.04639787 12.08339325 1.0625 10.625 C1.07410156 9.81289063 1.08570312 9.00078125 1.09765625 8.1640625 C1.14466334 5.95062858 1.14466334 5.95062858 0 4 C-3.41765047 2.63293981 -3.74199796 2.82799864 -7 5 Z " fill="#CBCBCB" transform="translate(87,29)"/>
<path d="M0 0 C1.423125 0.061875 2.84625 0.12375 4.3125 0.1875 C4.3125 3.1575 4.3125 6.1275 4.3125 9.1875 C4.9725 9.1875 5.6325 9.1875 6.3125 9.1875 C5.9825 12.1575 5.6525 15.1275 5.3125 18.1875 C0.96448774 19.27450306 -1.39632838 19.43584084 -5.6875 18.1875 C-8.22900117 14.29582634 -8.9545051 11.5478208 -8.5625 6.9375 C-7.27906502 1.43706435 -5.67379711 -0.24668683 0 0 Z M-3.6875 3.1875 C-5.53822153 8.32839313 -5.90224076 11.14281271 -3.6875 16.1875 C-2.0375 15.8575 -0.3875 15.5275 1.3125 15.1875 C1.6425 14.1975 1.9725 13.2075 2.3125 12.1875 C1.6525 12.1875 0.9925 12.1875 0.3125 12.1875 C0.3125 11.1975 0.3125 10.2075 0.3125 9.1875 C0.9725 9.1875 1.6325 9.1875 2.3125 9.1875 C1.6525 7.2075 0.9925 5.2275 0.3125 3.1875 C-1.0075 3.1875 -2.3275 3.1875 -3.6875 3.1875 Z " fill="#CBCBCB" transform="translate(116.6875,2.8125)"/>
<path d="M0 0 C1 6.75 1 6.75 1 9 C1.2475 9.94875 1.495 10.8975 1.75 11.875 C2 15 2 15 0.625 17.375 C-3.13832594 19.70467796 -6.67054697 19.53569297 -11 19 C-12 18 -12 18 -12.0625 14.4375 C-12.041875 13.303125 -12.02125 12.16875 -12 11 C-11.01 11.33 -10.02 11.66 -9 12 C-8.67 12.99 -8.34 13.98 -8 15 C-4.86650268 16.04449911 -4.01031744 15.93423645 -1 15 C-1.66627512 11.88403088 -1.66627512 11.88403088 -4.06640625 10.83203125 C-5.30197266 10.32736328 -5.30197266 10.32736328 -6.5625 9.8125 C-7.38878906 9.46832031 -8.21507813 9.12414063 -9.06640625 8.76953125 C-9.70449219 8.51558594 -10.34257813 8.26164062 -11 8 C-11.125 5.625 -11.125 5.625 -11 3 C-7.97062848 -0.02937152 -4.18236037 0 0 0 Z M-6 3 C-6.99 3.495 -6.99 3.495 -8 4 C-8 4.99 -8 5.98 -8 7 C-5.69 7.33 -3.38 7.66 -1 8 C-1.79117904 6.00016466 -1.79117904 6.00016466 -3 4 C-3.99 3.67 -4.98 3.34 -6 3 Z " fill="#CBCBCB" transform="translate(121,29)"/>
<path d="M0 0 C2.31 0 4.62 0 7 0 C6.83628906 0.54140625 6.67257813 1.0828125 6.50390625 1.640625 C5.91409413 4.40222593 5.90390692 6.92818139 5.9375 9.75 C5.95103516 11.22726562 5.95103516 11.22726562 5.96484375 12.734375 C5.97644531 13.48203125 5.98804687 14.2296875 6 15 C7.32 15 8.64 15 10 15 C10 11.37 10 7.74 10 4 C9.34 3.67 8.68 3.34 8 3 C8 2.01 8 1.02 8 0 C10.31 0 12.62 0 15 0 C15 0.99 15 1.98 15 3 C14.34 3 13.68 3 13 3 C13.10699219 3.73605469 13.21398437 4.47210938 13.32421875 5.23046875 C14.29343629 13.11969112 14.29343629 13.11969112 12.9375 17.1875 C11 19 11 19 7.9375 19.375 C5 19 5 19 3 18 C1.65664857 13.96994571 1.57098733 10.03438674 1.28125 5.8125 C1.09652802 2.9224826 1.09652802 2.9224826 0 0 Z " fill="#CBCBCB" transform="translate(75,3)"/>
<path d="M0 0 C1.4540625 0.0309375 1.4540625 0.0309375 2.9375 0.0625 C2.77378906 0.59359375 2.61007813 1.1246875 2.44140625 1.671875 C1.82393623 4.60126764 1.84248075 7.32072936 1.875 10.3125 C1.88402344 11.39015625 1.89304687 12.4678125 1.90234375 13.578125 C1.91394531 14.39796875 1.92554687 15.2178125 1.9375 16.0625 C3.2575 15.7325 4.5775 15.4025 5.9375 15.0625 C5.99179959 13.31284642 6.03042823 11.56270213 6.0625 9.8125 C6.09730469 8.35070312 6.09730469 8.35070312 6.1328125 6.859375 C5.93612781 4.0428502 5.38318916 2.45300964 3.9375 0.0625 C6.5775 0.0625 9.2175 0.0625 11.9375 0.0625 C11.6075 0.68125 11.2775 1.3 10.9375 1.9375 C9.73901379 5.68276941 9.91421536 8.76709186 10.16015625 12.66015625 C9.88194196 15.66194198 9.03624411 16.92974847 6.9375 19.0625 C3.875 19.4375 3.875 19.4375 0.9375 19.0625 C-2.58010602 15.54489398 -2.11752509 10.93407039 -2.125 6.1875 C-2.1091164 4.81243391 -2.08999766 3.43738287 -2.0625 2.0625 C-2.7225 1.7325 -3.3825 1.4025 -4.0625 1.0625 C-3.0625 0.0625 -3.0625 0.0625 0 0 Z " fill="#CBCBCB" transform="translate(96.0625,28.9375)"/>
<path d="M0 0 C6.025374 0.37658588 10.25812496 2.22830169 15 6 C17 9 17 9 17 12 C16.01 12 15.02 12 14 12 C13.29875 11.071875 12.5975 10.14375 11.875 9.1875 C8.76568697 5.1406095 4.80381213 4.19310367 0 3 C0 2.01 0 1.02 0 0 Z " fill="#CBCBCB" transform="translate(28,4)"/>
<path d="M0 0 C0.99 0 1.98 0 3 0 C3 0.99 3 1.98 3 3 C2.01 2.67 1.02 2.34 0 2 C0 1.34 0 0.68 0 0 Z " fill="#CBCBCB" transform="translate(19,12)"/>
<path d="M0 0 C0.66 0 1.32 0 2 0 C2 0.99 2 1.98 2 3 C1.01 2.67 0.02 2.34 -1 2 C-0.67 1.34 -0.34 0.68 0 0 Z " fill="#CBCBCB" transform="translate(10,12)"/>
<path d="M0 0 C0.66 0.33 1.32 0.66 2 1 C2 1.66 2 2.32 2 3 C1.01 3 0.02 3 -1 3 C-0.67 2.01 -0.34 1.02 0 0 Z " fill="#CBCBCB" transform="translate(15,8)"/>
<path d="M0 0 C0.99 0.33 1.98 0.66 3 1 C2.67 1.66 2.34 2.32 2 3 C1.34 3 0.68 3 0 3 C0 2.01 0 1.02 0 0 Z " fill="#CCCCCC" transform="translate(22,8)"/>
<path d="M0 0 C0.66 0 1.32 0 2 0 C2 0.99 2 1.98 2 3 C1.01 2.67 0.02 2.34 -1 2 C-0.67 1.34 -0.34 0.68 0 0 Z " fill="#CBCBCB" transform="translate(24,3)"/>
<path d="M0 0 C0.99 0 1.98 0 3 0 C3 0.66 3 1.32 3 2 C2.01 2 1.02 2 0 2 C0 1.34 0 0.68 0 0 Z " fill="#CACACA" transform="translate(26,13)"/>
</svg>
